<?xml version="1.0" standalone="no"?>
<!DOCTYPE svg PUBLIC "-//W3C//DTD SVG 20010904//EN"
 "http://www.w3.org/TR/2001/REC-SVG-20010904/DTD/svg10.dtd">
<svg version="1.0" xmlns="http://www.w3.org/2000/svg"
 width="480.000000pt" height="931.000000pt" viewBox="0 0 480.000000 931.000000"
 preserveAspectRatio="xMidYMid meet">

<g transform="translate(0.000000,931.000000) scale(0.100000,-0.100000)"
fill="#000000" stroke="none">
<path d="M20 9283 c-9 -18 -15 -77 -18 -158 l-4 -130 21 25 c22 27 28 13 10
-22 -8 -16 -8 -19 1 -13 24 15 27 -17 5 -41 -21 -23 -35 -80 -35 -145 0 -20 5
-29 18 -31 9 0 22 -2 27 -3 6 -2 15 -3 20 -4 6 -1 -1 -7 -14 -14 -36 -18 -49
-75 -49 -205 -1 -109 0 -115 14 -89 8 15 19 27 23 27 15 0 -1 -44 -21 -58 -13
-10 -18 -26 -18 -65 l0 -52 16 33 c15 30 42 47 31 20 -2 -7 -10 -30 -18 -50
-7 -21 -17 -38 -21 -38 -4 0 -8 -14 -8 -31 0 -17 4 -28 10 -24 5 3 10 -1 10
-9 0 -8 -5 -18 -10 -21 -6 -4 -10 -143 -10 -386 0 -354 1 -379 18 -379 16 -1
16 -1 0 -11 -16 -9 -18 -26 -18 -124 l0 -115 65 1 c43 1 65 5 62 12 -5 15 23
46 37 41 6 -2 20 16 31 41 19 43 21 45 62 45 24 0 43 5 43 10 0 6 5 10 10 10
6 0 10 -7 10 -15 0 -8 5 -15 10 -15 6 0 10 6 10 13 0 18 35 49 44 40 4 -4 9 3
13 15 3 12 10 22 15 22 6 0 26 16 44 36 l34 36 29 -31 c35 -37 41 -38 41 -7 0
21 6 24 49 30 29 4 49 11 48 19 -2 58 16 78 27 30 5 -17 3 -29 -6 -34 -10 -7
-9 -9 3 -9 23 0 52 46 44 71 -6 19 -6 20 13 3 20 -17 20 -17 -5 -61 -14 -26
-21 -49 -16 -54 12 -12 83 48 83 69 0 30 33 102 46 102 19 0 18 -29 -1 -36 -8
-4 -12 -11 -9 -16 10 -16 -28 -94 -65 -134 -27 -29 -51 -66 -51 -79 0 -12 155
153 203 216 18 24 34 35 49 34 22 -2 23 -5 22 -95 -2 -116 10 -99 25 35 20
170 19 166 41 152 29 -17 55 2 57 42 1 18 3 33 5 34 1 1 18 10 37 20 25 13 37
15 47 6 18 -15 44 -4 44 18 0 10 7 28 15 40 10 14 13 33 10 50 -4 20 -3 23 3
9 8 -17 11 -15 31 17 12 20 20 41 16 47 -3 6 1 13 10 17 10 3 20 0 25 -7 5 -7
10 2 14 26 7 32 38 73 58 74 3 0 9 -13 13 -29 3 -16 13 -35 20 -41 8 -7 17
-27 21 -46 3 -19 11 -34 18 -34 6 0 16 -10 22 -23 21 -42 59 -112 64 -117 15
-15 50 -71 50 -80 0 -5 5 -10 10 -10 6 0 10 -5 10 -10 0 -6 11 -22 25 -36 32
-32 32 -17 0 30 -14 20 -25 39 -25 42 0 2 -15 27 -34 55 -19 27 -38 58 -41 69
-4 11 -11 20 -16 20 -5 0 -9 7 -9 16 0 9 -9 27 -20 41 -11 14 -20 37 -20 50 0
13 -9 42 -21 64 -11 23 -18 43 -15 46 8 8 36 -17 36 -31 0 -12 51 -46 69 -46
6 0 11 9 11 20 0 15 -7 20 -25 20 -16 0 -25 6 -25 15 0 9 -12 28 -27 43 -18
17 -27 35 -25 50 2 13 -3 25 -12 28 -9 3 -16 10 -16 15 0 16 22 10 40 -11 16
-19 22 -19 70 -8 46 11 53 10 62 -5 5 -9 16 -17 23 -17 12 0 15 14 15 59 0 33
4 62 9 65 5 4 12 24 16 46 4 22 11 40 17 40 6 0 17 8 24 18 12 15 14 14 12
-13 -4 -64 1 -85 21 -85 23 0 37 -47 55 -185 9 -71 14 -92 18 -71 3 17 2 41
-3 54 -5 13 -9 42 -8 65 l1 42 10 -35 c28 -95 37 -116 38 -89 0 14 3 48 7 74
4 33 3 46 -5 41 -16 -10 -23 37 -27 205 -5 186 4 358 17 335 14 -24 32 -19 51
14 17 29 17 30 0 30 -15 0 -14 3 6 16 17 12 22 24 19 43 -4 24 -1 27 19 23 21
-4 23 -1 23 33 0 35 18 65 39 65 6 0 11 14 11 31 0 23 4 30 14 26 9 -4 13 -1
10 7 -3 7 4 21 16 31 11 10 20 23 20 28 0 6 11 25 25 43 28 36 31 50 13 56 -9
3 -9 6 -1 11 7 5 18 -12 28 -44 22 -66 36 -53 43 40 5 76 12 86 30 46 6 -14
16 -25 21 -25 11 0 23 32 19 51 -2 8 6 15 18 17 16 2 20 8 16 27 -2 15 -9 22
-18 18 -8 -3 -14 0 -14 6 0 8 -310 11 -1128 11 l-1129 0 -13 -27z m80 -125 c0
-7 -7 -22 -15 -32 -12 -16 -15 -17 -15 -4 0 24 11 48 21 48 5 0 9 -6 9 -12z
m-13 -80 c-3 -8 -6 -5 -6 6 -1 11 2 17 5 13 3 -3 4 -12 1 -19z m-32 -18 c-3
-5 -10 -10 -16 -10 -5 0 -9 5 -9 10 0 6 7 10 16 10 8 0 12 -4 9 -10z m25 -40
c0 -20 -5 -30 -15 -30 -18 0 -19 14 -3 40 17 26 18 25 18 -10z m30 -102 c0 -4
-11 -3 -24 3 -19 9 -22 14 -13 25 10 10 14 10 25 -4 6 -8 12 -19 12 -24z m90
-42 c0 -25 -12 -46 -26 -46 -8 0 -14 -6 -14 -14 0 -7 -15 -28 -32 -45 -24 -24
-29 -34 -20 -40 10 -6 11 -13 1 -34 -7 -15 -16 -27 -20 -27 -19 0 -15 34 12
91 46 98 99 159 99 115z m-166 -34 c-1 -7 -2 -21 -2 -32 -3 -35 -22 -21 -22
16 0 24 4 34 13 32 6 -3 12 -10 11 -16z m64 -12 c-7 -11 -15 -15 -17 -9 -2 6
3 15 10 20 20 12 21 11 7 -11z m122 -100 c0 -11 -7 -23 -15 -27 -9 -3 -27 -26
-40 -52 -30 -57 -49 -81 -64 -81 -17 0 -13 10 24 70 19 30 35 59 35 66 0 11
37 42 53 43 4 1 7 -8 7 -19z m-20 -129 c-7 -14 -7 -22 0 -26 6 -4 7 -11 4 -17
-4 -6 -10 -5 -16 3 -7 11 -11 11 -15 2 -7 -18 -33 -16 -33 2 0 20 36 55 55 55
12 0 14 -4 5 -19z m-80 -61 c0 -5 -5 -10 -11 -10 -5 0 -7 5 -4 10 3 6 8 10 11
10 2 0 4 -4 4 -10z m190 -5 c0 -8 -4 -15 -10 -15 -5 0 -10 7 -10 15 0 8 5 15
10 15 6 0 10 -7 10 -15z m-66 -26 c-8 -13 -24 -1 -24 18 0 13 3 13 15 3 8 -7
12 -16 9 -21z m-19 -9 c7 -12 -20 -56 -63 -97 -35 -36 -44 -40 -36 -19 3 8 0
17 -5 21 -16 9 -3 25 15 18 8 -3 14 -1 12 4 -3 10 53 82 64 83 4 0 10 -4 13
-10z m-97 -32 c-6 -18 -28 -21 -28 -4 0 9 7 16 16 16 9 0 14 -5 12 -12z m158
-31 c-1 -7 -12 -24 -24 -37 -18 -19 -22 -21 -22 -7 0 9 5 17 10 17 6 0 10 6
10 14 0 8 6 17 13 19 6 3 13 6 14 6 1 1 0 -5 -1 -12z m-196 -13 c0 -13 -21
-44 -30 -44 -14 0 -12 18 3 35 12 15 27 20 27 9z m1707 -31 c-3 -10 -5 -4 -5
12 0 17 2 24 5 18 2 -7 2 -21 0 -30z m3 -56 c0 -4 -6 -2 -14 5 -8 7 -12 17 -9
22 5 8 23 -12 23 -27z m-1685 3 c-3 -5 -10 -10 -16 -10 -5 0 -9 5 -9 10 0 6 7
10 16 10 8 0 12 -4 9 -10z m85 -69 c0 -14 -18 -23 -31 -15 -8 4 -7 9 2 15 18
11 29 11 29 0z m1407 -63 c-2 -13 -4 -3 -4 22 0 25 2 35 4 23 2 -13 2 -33 0
-45z m43 22 c0 -22 -4 -40 -10 -40 -5 0 -10 18 -10 40 0 22 5 40 10 40 6 0 10
-18 10 -40z m-1592 13 c5 -17 -26 -29 -40 -15 -6 6 -7 15 -3 22 9 14 37 9 43
-7z m1482 -19 c0 -2 -7 -4 -15 -4 -8 0 -15 4 -15 10 0 5 7 7 15 4 8 -4 15 -8
15 -10z m-263 -216 c-3 -8 -6 -5 -6 6 -1 11 2 17 5 13 3 -3 4 -12 1 -19z m-80
-110 c-3 -8 -6 -5 -6 6 -1 11 2 17 5 13 3 -3 4 -12 1 -19z m18 -60 c-10 -44
-13 -48 -36 -48 -12 0 -17 4 -14 11 4 6 13 8 21 5 9 -3 14 2 14 14 0 11 -4 20
-10 20 -5 0 -10 7 -10 15 0 9 9 15 21 15 18 0 20 -4 14 -32z m-159 -116 c-18
-16 -18 -16 -6 6 6 13 14 21 18 18 3 -4 -2 -14 -12 -24z m-116 -80 c0 -4 -9
-13 -20 -20 -22 -13 -27 -3 -8 16 14 14 28 16 28 4z m-243 -8 c-3 -3 -12 -4
-19 -1 -8 3 -5 6 6 6 11 1 17 -2 13 -5z m95 -16 c-7 -7 -12 -8 -12 -2 0 14 12
26 19 19 2 -3 -1 -11 -7 -17z m95 -30 c-3 -8 -6 -5 -6 6 -1 11 2 17 5 13 3 -3
4 -12 1 -19z m-117 -18 c0 -11 -7 -20 -15 -20 -13 0 -14 4 -5 20 6 11 13 20
15 20 3 0 5 -9 5 -20z m-153 -82 c-2 -13 -4 -3 -4 22 0 25 2 35 4 23 2 -13 2
-33 0 -45z m-77 -4 c0 -8 -7 -14 -15 -14 -17 0 -18 2 -9 24 7 18 24 12 24 -10z"/>
<path d="M2855 9289 c8 -25 36 -71 91 -147 70 -99 125 -196 120 -214 -2 -10 1
-16 8 -15 6 1 12 -13 14 -31 2 -18 10 -36 18 -39 8 -3 14 -12 14 -20 0 -12 3
-13 14 -4 11 9 15 8 20 -5 3 -9 2 -22 -4 -29 -13 -16 -4 -60 16 -76 8 -6 14
-19 14 -28 0 -10 14 -27 30 -39 17 -13 30 -29 30 -36 0 -8 6 -16 14 -19 7 -3
30 -38 51 -79 21 -40 43 -76 48 -80 7 -4 6 -12 -2 -22 -11 -13 -10 -19 10 -35
21 -18 23 -22 11 -42 -17 -27 -1 -49 22 -30 12 10 19 5 40 -32 14 -24 26 -51
26 -60 0 -10 4 -17 8 -17 5 0 19 -23 32 -50 13 -28 30 -56 37 -62 7 -6 22 -29
32 -52 19 -43 57 -84 67 -73 3 3 -3 18 -14 34 -11 15 -31 53 -46 83 -35 71 -6
40 54 -60 31 -51 40 -74 31 -79 -12 -8 -5 -41 9 -41 5 0 12 -9 15 -21 4 -11
10 -18 13 -14 9 9 2 89 -8 95 -5 3 -12 25 -16 49 -6 35 -4 42 6 36 10 -6 11
-3 5 16 -4 13 -9 80 -11 149 l-3 125 44 -3 c59 -5 63 -32 5 -32 -45 0 -47 -2
-22 -31 55 -69 61 -74 62 -57 0 9 -4 20 -10 23 -16 10 -12 38 5 31 8 -3 15 -1
15 4 0 15 19 12 37 -5 9 -10 12 -22 7 -33 -6 -15 -8 -14 -11 6 -3 12 -9 22
-14 22 -19 0 -7 -27 31 -69 22 -24 40 -50 40 -57 0 -8 6 -14 13 -14 25 0 49
-37 42 -61 -6 -18 -4 -21 9 -16 10 4 15 3 11 -3 -3 -6 -1 -10 5 -10 6 0 16
-11 22 -25 6 -14 16 -25 22 -25 22 0 96 -80 96 -104 0 -8 5 -18 10 -21 6 -3
10 -1 10 4 0 21 15 10 29 -20 10 -23 16 -28 22 -18 6 10 9 11 9 2 0 -7 9 -13
20 -13 11 0 20 7 20 15 0 8 -8 15 -19 15 -10 0 -26 12 -36 26 -18 27 -13 46 7
26 7 -7 22 -12 35 -12 14 0 23 -6 23 -15 0 -10 10 -15 34 -15 22 0 36 -6 40
-16 4 -11 16 -15 43 -12 31 2 38 0 41 -17 2 -11 18 -36 35 -55 31 -33 39 -46
65 -97 29 -56 32 -64 32 -78 0 -8 5 -15 10 -15 21 0 9 -20 -12 -21 l-23 0 22
-9 c25 -10 133 -120 133 -135 0 -6 8 -26 19 -45 10 -19 26 -69 36 -110 9 -41
21 -91 26 -110 19 -81 21 -110 5 -110 -13 0 -13 -5 3 -33 17 -30 28 -73 34
-137 7 -64 31 -170 39 -170 4 0 8 594 8 1320 l0 1320 -800 0 c-545 0 -800 -3
-800 -10 0 -7 -6 -7 -17 -2 -10 5 -65 10 -122 11 -93 1 -102 0 -91 -14 20 -25
2 -31 -20 -7 -21 22 -40 29 -40 14 0 -4 5 -13 12 -20 6 -6 8 -15 4 -19 -4 -5
-17 4 -28 20 -24 33 -53 37 -43 6z m278 -50 c12 0 16 -3 10 -6 -20 -8 -15 -22
12 -35 17 -7 25 -19 25 -35 0 -13 5 -33 11 -44 10 -20 11 -20 24 -2 20 26 18
36 -5 30 -15 -4 -20 0 -20 13 0 11 4 21 9 25 16 9 61 -17 61 -36 0 -23 16 -33
24 -14 7 18 46 20 46 2 0 -7 9 -18 20 -25 22 -14 73 -90 73 -109 0 -7 7 -13
15 -13 9 0 13 -7 9 -20 -3 -10 0 -18 5 -17 6 1 13 -4 15 -10 3 -7 0 -13 -6
-13 -6 0 -11 -5 -11 -11 0 -6 6 -9 14 -6 11 4 12 -1 7 -21 -10 -38 -26 -37
-49 3 -22 36 -37 44 -44 23 -4 -12 44 -92 63 -103 5 -4 7 -10 4 -15 -3 -4 2
-10 10 -14 8 -3 15 -12 15 -21 0 -8 4 -15 9 -15 5 0 13 -10 16 -22 18 -63 27
-78 41 -67 11 9 14 8 14 -5 0 -8 9 -30 20 -48 11 -18 20 -29 20 -25 0 10 26
-14 28 -27 5 -22 -47 -16 -72 9 -47 47 -63 21 -23 -37 12 -19 32 -44 44 -57
15 -16 24 -42 28 -80 4 -31 11 -72 17 -91 10 -30 12 -32 19 -15 13 35 9 2 -5
-40 -8 -21 -19 -41 -24 -43 -13 -4 -35 34 -30 50 2 6 -10 26 -28 43 -17 18
-35 43 -39 56 -10 33 -24 49 -44 49 -26 0 -54 58 -57 117 -1 29 2 53 7 53 5 0
9 5 9 10 0 6 -6 10 -14 10 -8 0 -23 15 -34 33 -37 59 -112 215 -112 231 0 10
-13 34 -29 54 -17 20 -40 64 -52 97 -12 33 -27 67 -33 75 -31 42 -49 84 -38
88 14 4 16 42 2 42 -14 0 -42 59 -34 72 4 7 12 1 21 -16 8 -15 23 -26 36 -27z
m-173 -43 c-1 -21 -1 -21 -15 -2 -8 11 -15 29 -15 40 1 21 1 21 15 2 8 -11 15
-29 15 -40z m72 -4 c43 -62 128 -235 128 -262 0 -16 43 -100 52 -100 4 0 8 -5
8 -12 0 -17 -40 23 -61 62 -11 19 -28 49 -39 65 -10 17 -19 39 -19 50 -1 11
-10 34 -21 50 -11 17 -20 40 -20 52 0 14 -10 26 -29 34 -17 8 -27 18 -24 26 3
9 0 11 -10 8 -16 -7 -32 21 -17 30 6 4 10 15 10 26 0 10 2 19 4 19 2 0 19 -21
38 -48z m458 -218 c0 -8 -4 -12 -10 -9 -5 3 -10 10 -10 16 0 5 5 9 10 9 6 0
10 -7 10 -16z m7 -46 c-3 -8 -6 -5 -6 6 -1 11 2 17 5 13 3 -3 4 -12 1 -19z
m33 -44 c0 -33 -33 -30 -38 4 -3 17 2 22 17 22 16 0 21 -6 21 -26z m0 -91 c0
-32 -11 -24 -14 11 -2 14 1 23 5 20 5 -3 9 -17 9 -31z m1040 -73 c0 -5 -2 -10
-4 -10 -3 0 -8 5 -11 10 -3 6 -1 10 4 10 6 0 11 -4 11 -10z m-1350 -10 c0 -5
-4 -10 -10 -10 -5 0 -10 5 -10 10 0 6 5 10 10 10 6 0 10 -4 10 -10z m99 -47
c12 -27 26 -55 31 -63 18 -29 43 -91 38 -95 -7 -7 -64 86 -71 117 -4 14 -18
36 -32 49 -30 29 -31 39 -6 39 12 0 25 -15 40 -47z m1060 -7 c-3 -3 -11 5 -18
17 -13 21 -12 21 5 5 10 -10 16 -20 13 -22z m154 -2 c-7 -19 -23 -7 -23 18 0
17 3 18 14 8 8 -6 12 -18 9 -26z m-693 0 c0 -8 -4 -12 -10 -9 -5 3 -10 10 -10
16 0 5 5 9 10 9 6 0 10 -7 10 -16z m640 -135 c7 -11 9 -23 7 -26 -8 -7 -47 21
-47 34 0 21 28 15 40 -8z m-860 -26 c0 -13 -3 -13 -15 -3 -8 7 -12 16 -9 21 8
13 24 1 24 -18z m120 18 c0 -6 -4 -13 -10 -16 -5 -3 -10 -2 -10 4 0 5 -10 12
-22 14 -17 3 -14 5 10 6 17 0 32 -3 32 -8z m180 -20 c0 -16 3 -36 6 -45 3 -9
2 -16 -4 -16 -6 0 -17 20 -25 45 -15 43 -15 45 4 45 14 0 19 -7 19 -29z m-224
-19 c28 -19 33 -20 44 -7 7 8 20 15 30 15 19 0 57 -37 47 -46 -3 -4 -2 -15 3
-25 20 -36 -12 -32 -45 5 -24 28 -34 34 -38 23 -7 -19 3 -58 13 -52 10 6 22
-24 14 -36 -3 -5 -22 -9 -43 -9 -40 0 -40 0 -60 63 -8 23 -7 28 4 23 9 -3 12
0 8 10 -3 7 -9 14 -14 14 -5 0 -9 15 -9 33 0 17 4 27 8 22 4 -6 21 -21 38 -33z
m834 -8 c0 -8 -7 -14 -15 -14 -8 0 -15 9 -15 20 0 13 5 18 15 14 8 -4 15 -12
15 -20z m-20 -34 c0 -5 -2 -10 -4 -10 -3 0 -8 5 -11 10 -3 6 -1 10 4 10 6 0
11 -4 11 -10z m-1090 -46 c0 -8 -4 -12 -10 -9 -5 3 -10 13 -10 21 0 8 5 12 10
9 6 -3 10 -13 10 -21z m1140 -20 c0 -7 5 -14 12 -16 6 -2 9 -10 7 -17 -3 -8
-15 2 -32 26 -32 46 -35 63 -7 38 11 -10 20 -24 20 -31z m-556 -76 c1 -14 5
-26 10 -25 5 1 14 -11 19 -28 5 -16 20 -50 33 -75 13 -26 20 -51 15 -58 -5 -8
-15 4 -30 34 -13 25 -29 48 -36 50 -13 5 -25 37 -30 81 -2 13 -13 35 -25 50
-12 16 -17 29 -11 31 6 2 11 11 11 20 0 28 43 -50 44 -80z m-377 30 c-3 -8 -6
-5 -6 6 -1 11 2 17 5 13 3 -3 4 -12 1 -19z m983 -28 c0 -5 -2 -10 -4 -10 -3 0
-8 5 -11 10 -3 6 -1 10 4 10 6 0 11 -4 11 -10z m-971 -142 c-2 -34 -3 -37 -6
-13 -3 16 -12 35 -21 42 -15 11 -15 12 6 13 20 0 22 -5 21 -42z m25 -74 c9
-24 2 -26 -12 -4 -7 11 -8 20 -3 20 5 0 12 -7 15 -16z m471 -134 c5 -33 4 -42
-4 -34 -6 6 -14 35 -17 65 -5 63 9 41 21 -31z m85 26 c0 -19 26 -40 35 -26 8
13 35 13 35 0 0 -5 -7 -10 -15 -10 -18 0 -20 -21 -4 -37 12 -12 -3 -51 -18
-44 -29 16 -72 86 -66 110 6 23 33 29 33 7z"/>
<path d="M3227 9104 c-15 -15 -6 -34 16 -34 12 0 17 3 11 8 -6 4 -13 13 -15
20 -3 7 -8 10 -12 6z"/>
<path d="M3346 9035 c-3 -8 -1 -15 4 -15 6 0 10 7 10 15 0 8 -2 15 -4 15 -2 0
-6 -7 -10 -15z"/>
<path d="M3232 8975 c6 -14 17 -25 25 -25 19 0 16 10 -9 31 -28 25 -30 24 -16
-6z"/>
<path d="M3280 8920 c0 -5 5 -10 11 -10 5 0 7 5 4 10 -3 6 -8 10 -11 10 -2 0
-4 -4 -4 -10z"/>
<path d="M3360 8761 c0 -5 5 -13 10 -16 6 -3 10 -2 10 4 0 5 -4 13 -10 16 -5
3 -10 2 -10 -4z"/>
<path d="M3440 8659 c0 -5 5 -7 10 -4 6 3 10 8 10 11 0 2 -4 4 -10 4 -5 0 -10
-5 -10 -11z"/>
<path d="M3545 8420 c3 -5 8 -10 11 -10 2 0 4 5 4 10 0 6 -5 10 -11 10 -5 0
-7 -4 -4 -10z"/>
<path d="M3706 8373 c-11 -11 -6 -23 9 -23 8 0 15 4 15 9 0 13 -16 22 -24 14z"/>
<path d="M2835 9260 c3 -5 8 -10 11 -10 2 0 4 5 4 10 0 6 -5 10 -11 10 -5 0
-7 -4 -4 -10z"/>
<path d="M2396 8765 c-3 -8 -1 -15 4 -15 6 0 10 7 10 15 0 8 -2 15 -4 15 -2 0
-6 -7 -10 -15z"/>
<path d="M3030 8641 c0 -6 4 -13 10 -16 6 -3 7 1 4 9 -7 18 -14 21 -14 7z"/>
<path d="M3186 8513 c5 -4 18 -19 27 -33 l17 -24 0 27 c0 15 -4 27 -9 27 -5 0
-18 3 -28 6 -10 3 -14 2 -7 -3z"/>
<path d="M3280 8458 c0 -16 4 -28 9 -28 5 0 11 -10 13 -22 2 -12 9 -23 17 -26
16 -5 7 27 -20 72 l-19 31 0 -27z"/>
<path d="M2442 8420 c0 -14 2 -19 5 -12 2 6 2 18 0 25 -3 6 -5 1 -5 -13z"/>
<path d="M3194 8425 c3 -11 8 -32 11 -47 4 -15 13 -29 20 -32 17 -6 8 29 -18
69 -11 19 -17 22 -13 10z"/>
<path d="M3270 8287 c0 -6 51 -103 71 -134 7 -13 20 -23 28 -23 11 0 11 3 1
15 -11 13 -10 18 3 28 14 11 14 15 2 37 -14 25 -14 25 -15 3 0 -27 -30 -32
-30 -5 0 9 -14 32 -30 51 -17 18 -30 31 -30 28z"/>
<path d="M2432 8165 c0 -16 2 -22 5 -12 2 9 2 23 0 30 -3 6 -5 -1 -5 -18z"/>
<path d="M3700 8170 c11 -21 22 -25 33 -13 7 6 -21 32 -36 33 -4 0 -3 -9 3
-20z"/>
<path d="M3757 8167 c-8 -22 74 -102 85 -84 11 17 10 27 -2 27 -5 0 -25 16
-43 37 -28 30 -35 33 -40 20z"/>
<path d="M1600 8086 c0 -57 16 -68 29 -21 11 41 6 65 -15 65 -10 0 -14 -13
-14 -44z"/>
<path d="M3351 8094 c0 -11 3 -14 6 -6 3 7 2 16 -1 19 -3 4 -6 -2 -5 -13z"/>
<path d="M1895 7981 c-4 -7 -3 -24 3 -39 5 -15 15 -52 22 -82 12 -56 32 -126
55 -190 7 -19 23 -67 35 -107 12 -40 29 -78 37 -85 14 -11 15 -10 9 12 -4 14
-12 41 -18 60 -6 19 -16 49 -23 65 -8 17 -16 47 -20 69 -3 21 -10 46 -15 55
-5 9 -18 52 -29 96 -27 108 -47 160 -56 146z"/>
<path d="M3885 7970 c-8 -13 -1 -24 14 -19 6 3 7 10 2 18 -6 10 -10 10 -16 1z"/>
<path d="M1855 7940 c3 -5 8 -10 11 -10 2 0 4 5 4 10 0 6 -5 10 -11 10 -5 0
-7 -4 -4 -10z"/>
<path d="M1860 7900 c0 -5 5 -10 10 -10 6 0 10 5 10 10 0 6 -4 10 -10 10 -5 0
-10 -4 -10 -10z"/>
<path d="M3960 7876 c0 -8 5 -18 10 -21 6 -3 10 3 10 14 0 12 -4 21 -10 21 -5
0 -10 -6 -10 -14z"/>
<path d="M3752 7828 c2 -25 11 -43 26 -54 12 -9 22 -23 22 -30 0 -8 5 -14 10
-14 14 0 13 4 -12 47 -11 21 -27 49 -35 63 -13 25 -13 24 -11 -12z"/>
<path d="M1521 7809 c-1 -16 11 -40 33 -65 32 -37 34 -38 29 -12 -3 15 -16 34
-28 42 -13 9 -26 26 -28 38 -4 21 -4 21 -6 -3z"/>
<path d="M4216 7791 c-3 -5 1 -11 9 -15 9 -3 15 0 15 9 0 16 -16 20 -24 6z"/>
<path d="M4178 7783 c7 -3 16 -2 19 1 4 3 -2 6 -13 5 -11 0 -14 -3 -6 -6z"/>
<path d="M4218 7720 c16 -29 32 -39 32 -22 0 11 -35 52 -43 52 -3 0 2 -13 11
-30z"/>
<path d="M3830 7704 c0 -11 12 -31 26 -45 l26 -24 -13 30 c-7 17 -19 37 -26
45 -11 12 -13 12 -13 -6z"/>
<path d="M3800 7644 c0 -19 33 -79 37 -67 2 6 -5 26 -16 44 -12 19 -21 29 -21
23z"/>
<path d="M1899 7621 c7 -5 17 -14 21 -21 5 -8 9 -5 13 9 4 17 1 21 -21 21 -19
0 -23 -3 -13 -9z"/>
<path d="M3890 7601 c0 -6 4 -13 10 -16 6 -3 7 1 4 9 -7 18 -14 21 -14 7z"/>
<path d="M4450 7556 c0 -2 7 -7 16 -10 8 -3 12 -2 9 4 -6 10 -25 14 -25 6z"/>
<path d="M965 7538 c-4 -10 -4 -26 0 -35 8 -17 8 -17 12 0 3 9 3 25 0 35 -4
16 -4 16 -12 0z"/>
<path d="M1793 7504 c9 -17 23 -34 32 -37 24 -10 17 7 -16 39 l-31 29 15 -31z"/>
<path d="M667 7393 c-4 -3 -6 -18 -6 -32 1 -16 3 -20 6 -9 2 9 13 20 24 23 10
4 19 11 19 16 0 10 -33 12 -43 2z"/>
<path d="M538 7383 c7 -3 16 -2 19 1 4 3 -2 6 -13 5 -11 0 -14 -3 -6 -6z"/>
<path d="M1912 7370 c15 -24 33 -27 24 -4 -3 9 -6 18 -6 20 0 2 -7 4 -15 4
-13 0 -13 -3 -3 -20z"/>
<path d="M1967 7323 c-3 -5 3 -20 14 -33 18 -24 19 -24 19 -4 0 23 -25 50 -33
37z"/>
<path d="M178 7203 c-10 -2 -18 -8 -18 -13 0 -10 38 -1 46 11 5 9 1 10 -28 2z"/>
<path d="M3 7058 c3 -51 6 -104 8 -117 5 -29 29 -41 30 -14 0 10 2 27 4 38 2
11 6 48 10 83 5 34 12 65 16 68 5 3 9 12 9 20 0 10 -12 14 -41 14 l-40 0 4
-92z"/>
<path d="M4030 6950 c0 -5 6 -10 14 -10 8 0 16 -6 19 -12 2 -7 8 -10 12 -6 13
12 -4 38 -25 38 -11 0 -20 -4 -20 -10z"/>
<path d="M3790 6918 c0 -8 5 -19 12 -26 16 -16 9 -15 -42 3 -57 20 -80 19 -80
-3 0 -10 5 -23 12 -30 18 -18 -13 -15 -40 4 -18 12 -26 13 -37 4 -8 -7 -15
-19 -15 -26 0 -11 -5 -11 -25 -2 -30 13 -43 5 -25 -17 7 -9 10 -19 6 -23 -4
-4 -12 1 -17 10 -9 15 -13 16 -52 2 -23 -8 -52 -20 -65 -26 -18 -10 -28 -9
-44 1 -18 11 -20 11 -15 -3 8 -20 0 -24 -83 -36 -83 -12 -160 -32 -160 -42 0
-5 -8 -8 -18 -8 -10 0 -27 -7 -38 -15 -10 -8 -28 -15 -39 -15 l-20 -1 20 -9
c15 -7 10 -9 -22 -9 -24 -1 -43 -5 -43 -10 0 -6 -16 -3 -35 5 -19 7 -37 14
-40 14 -8 0 -6 -30 3 -30 4 0 18 -10 32 -21 l25 -20 -32 4 c-23 2 -33 -1 -33
-10 0 -8 -12 -13 -31 -13 -19 0 -29 -4 -27 -12 2 -6 -3 -19 -11 -28 -15 -14
-17 -13 -33 11 -15 24 -22 27 -60 25 -51 -4 -108 -30 -108 -50 0 -8 -6 -16
-14 -19 -19 -7 -30 -58 -15 -67 6 -4 8 -13 5 -19 -4 -6 -11 -9 -16 -6 -5 3
-11 -8 -15 -25 -4 -16 -13 -30 -21 -30 -11 0 -13 -16 -11 -75 1 -42 -2 -79 -8
-83 -13 -9 -35 -49 -35 -63 0 -7 7 -17 15 -23 15 -11 44 -127 45 -175 0 -32
22 -94 36 -103 7 -4 15 -20 18 -35 9 -35 91 -111 129 -120 15 -3 32 -14 38
-24 5 -11 19 -19 30 -19 11 0 38 -18 59 -40 21 -22 45 -40 53 -40 8 0 17 -7
21 -15 3 -8 12 -15 21 -15 8 0 15 -4 15 -10 0 -26 37 -46 75 -42 28 3 40 0 47
-12 8 -13 30 -16 143 -16 94 0 135 -3 135 -11 0 -8 20 -10 68 -5 37 4 90 2
117 -3 31 -6 51 -6 53 0 2 5 17 9 34 9 51 0 138 31 173 61 18 16 37 29 42 29
10 0 43 37 43 49 0 5 6 14 14 20 11 9 15 9 18 0 3 -8 11 -10 22 -6 12 5 15 13
11 27 -5 14 4 30 35 60 43 42 48 64 13 66 -29 2 -43 13 -43 35 0 12 -7 19 -20
19 -11 0 -20 5 -20 10 0 6 10 10 23 10 13 0 33 9 46 21 17 16 30 20 55 15 36
-7 51 9 40 39 -5 12 3 15 35 15 23 0 41 -4 41 -10 0 -5 5 -10 10 -10 14 0 12
34 -2 48 -10 10 -10 15 2 22 8 6 21 8 29 5 18 -7 41 13 35 30 -4 9 9 15 40 19
30 5 49 14 56 27 6 10 18 19 26 19 23 0 69 56 84 101 7 21 19 39 27 39 18 0
17 19 -2 26 -8 4 -26 27 -41 53 -19 36 -38 54 -77 74 -68 35 -109 51 -124 48
-7 -1 -25 5 -41 13 -23 12 -69 14 -223 13 -107 -1 -197 -5 -200 -10 -3 -4 -28
-3 -55 3 -34 7 -59 8 -76 1 -21 -8 -29 -6 -42 8 -9 10 -13 21 -9 24 12 12 23
7 23 -10 0 -15 1 -15 18 0 10 10 29 17 43 18 22 1 22 1 -6 11 -16 6 -35 18
-42 27 -10 14 -5 17 39 23 32 4 57 14 70 28 42 45 218 106 276 95 22 -4 38 -2
42 5 4 6 36 12 72 13 36 1 64 5 61 10 -2 4 5 7 16 7 39 0 21 27 -28 43 -52 17
-93 45 -85 59 3 4 -1 8 -8 8 -8 0 -23 7 -34 16 -18 15 -18 15 10 9 16 -3 37
-16 47 -29 11 -14 42 -29 83 -40 79 -22 123 -16 51 6 -80 25 -125 46 -125 59
0 8 3 9 14 0 13 -11 101 -41 121 -41 6 0 -5 9 -22 20 -40 24 -41 29 -5 22 37
-6 21 9 -46 43 -29 15 -55 31 -58 36 -9 16 -83 48 -78 34 3 -7 16 -18 30 -25
13 -7 22 -15 21 -17 -2 -2 -31 11 -65 28 -56 28 -63 29 -78 15 -17 -18 -28
-21 -19 -6 4 6 -6 10 -22 10 -15 0 -45 3 -65 6 -29 5 -38 3 -38 -8z m185 -43
c22 -7 58 -24 80 -35 l40 -22 -35 7 c-19 3 -45 6 -57 7 -13 0 -20 4 -17 9 3 5
-11 16 -30 24 -20 9 -36 17 -36 20 0 8 12 6 55 -10z m-135 -5 c0 -5 -4 -10
-10 -10 -5 0 -10 5 -10 10 0 6 5 10 10 10 6 0 10 -4 10 -10z m220 -128 c23
-10 23 -11 4 -11 -12 -1 -32 8 -45 19 -20 17 -20 19 -4 12 11 -6 31 -15 45
-20z m-80 -22 c12 -8 11 -10 -7 -10 -12 0 -25 5 -28 10 -8 13 15 13 35 0z
m-270 -160 c0 -5 -7 -10 -15 -10 -8 0 -15 -5 -15 -11 0 -5 -4 -7 -10 -4 -6 4
-5 11 3 20 14 17 37 20 37 5z m235 -390 c16 -16 36 -30 45 -30 9 0 17 -7 17
-15 0 -8 -4 -12 -9 -9 -4 3 -8 -1 -8 -9 0 -42 -49 -93 -109 -112 -21 -6 -22
-5 -16 17 4 12 16 42 27 65 13 28 19 57 16 83 -2 22 -1 40 2 40 4 0 19 -13 35
-30z m-541 -65 c-4 -8 -10 -15 -15 -15 -5 0 -9 7 -9 15 0 8 7 15 15 15 9 0 12
-6 9 -15z m486 -175 c0 -5 -4 -10 -9 -10 -6 0 -13 5 -16 10 -3 6 1 10 9 10 9
0 16 -4 16 -10z m-4 -154 c19 -20 18 -26 -6 -26 -13 0 -20 7 -20 20 0 24 6 25
26 6z m-11 -116 c-3 -5 -13 -10 -21 -10 -8 0 -12 5 -9 10 3 6 13 10 21 10 8 0
12 -4 9 -10z m42 -22 c-3 -7 -5 -2 -5 12 0 14 2 19 5 13 2 -7 2 -19 0 -25z"/>
<path d="M4110 6903 c8 -3 23 -12 33 -21 9 -8 17 -12 17 -7 0 12 -33 34 -50
34 -13 -1 -13 -1 0 -6z"/>
<path d="M740 6835 c-14 -8 -20 -14 -14 -15 5 0 19 7 30 15 24 18 16 19 -16 0z"/>
<path d="M972 6829 c-13 -11 -38 -27 -57 -35 -45 -18 -45 -27 0 -22 21 2 34 0
32 -6 -4 -11 -69 -32 -130 -41 -21 -3 -35 -9 -33 -14 8 -12 -34 -43 -50 -37
-8 3 -14 2 -14 -3 0 -12 47 -20 90 -15 29 3 31 2 10 -4 -24 -8 -24 -9 10 -16
19 -5 41 -13 49 -20 12 -9 12 -8 2 12 -11 20 -10 22 16 21 15 0 22 -3 16 -6
-20 -7 -15 -23 6 -23 10 0 24 -7 31 -15 7 -8 18 -15 26 -15 7 0 44 -15 81 -34
37 -18 85 -37 106 -40 28 -5 37 -11 33 -21 -6 -16 45 -57 66 -54 24 3 37 -1
52 -17 9 -8 41 -18 71 -21 37 -4 55 -10 55 -19 0 -8 -8 -14 -18 -14 -10 0 -26
-6 -37 -14 -31 -21 -214 -20 -238 1 -15 14 -20 15 -26 4 -7 -11 -24 -10 -95 4
-105 21 -362 16 -436 -8 -43 -14 -41 -14 83 -10 102 3 127 1 127 -10 0 -8 -18
-20 -40 -27 -22 -7 -40 -17 -40 -22 0 -4 -10 -8 -22 -8 -12 0 -29 -6 -37 -13
-9 -7 -33 -19 -55 -26 -48 -16 -86 -49 -86 -73 0 -22 -18 -60 -34 -70 -8 -6
-6 -11 4 -19 11 -8 12 -12 3 -16 -7 -2 -13 -9 -13 -14 0 -6 28 -7 68 -5 37 3
59 3 49 0 -28 -9 -1 -34 35 -34 16 0 27 -4 24 -9 -8 -13 39 -41 71 -42 17 -1
21 -3 11 -6 -10 -2 -18 -8 -18 -11 0 -14 59 -33 83 -27 14 4 28 2 31 -4 4 -6
16 -11 27 -11 10 0 19 -5 19 -11 0 -25 31 -41 68 -35 29 4 49 0 86 -19 36 -18
65 -25 108 -25 32 0 68 -6 81 -12 12 -7 24 -14 25 -15 10 -5 -22 -73 -34 -73
-25 0 -15 -14 25 -37 28 -16 41 -19 44 -10 2 6 7 9 11 6 13 -12 -6 -39 -28
-39 -12 0 -26 -8 -32 -18 -7 -10 -36 -23 -72 -31 -34 -7 -66 -19 -71 -25 -14
-17 2 -37 33 -40 14 -2 34 -10 44 -19 17 -15 28 -15 123 9 15 3 36 1 48 -5 14
-8 21 -8 21 -1 0 5 -8 10 -17 10 -9 0 -13 3 -9 7 4 4 47 7 96 8 73 0 90 -3 90
-15 1 -12 3 -11 11 3 7 12 17 16 30 12 14 -5 19 -2 19 13 0 26 22 33 60 19 23
-9 33 -9 38 -1 7 11 228 38 241 29 16 -9 150 -15 155 -6 3 5 2 20 -3 34 -6 16
-6 28 1 35 8 8 7 16 -3 28 -12 15 -12 16 8 10 16 -5 25 -2 32 13 14 25 14 156
1 181 -7 13 -6 21 5 30 8 7 12 17 9 22 -4 5 -3 48 1 94 5 62 10 84 21 84 10 0
14 13 14 45 0 34 -3 43 -14 39 -8 -3 -19 3 -26 15 -9 17 -8 21 5 21 11 0 15
11 16 38 1 32 2 34 9 12 5 -17 6 -6 5 32 -1 38 -8 64 -18 76 -10 10 -17 24
-17 30 0 12 -20 16 -50 12 -8 -1 -24 -13 -36 -27 -15 -19 -26 -24 -41 -19 -12
4 -42 7 -67 8 -30 0 -46 5 -46 13 0 8 5 15 12 17 6 2 9 12 5 21 -5 15 -15 16
-61 11 -30 -4 -63 -3 -73 1 -16 6 -16 8 5 16 28 11 20 29 -14 29 -13 0 -23 3
-22 8 1 4 -4 17 -12 30 -11 16 -24 22 -52 22 -37 0 -51 13 -25 23 6 3 0 6 -14
6 -15 1 -29 8 -33 16 -3 8 -16 15 -30 15 -13 0 -26 7 -30 15 -3 8 -9 15 -13
14 -25 -4 -41 4 -46 22 -4 16 -11 20 -27 16 -13 -3 -23 0 -27 9 -3 9 -13 12
-24 9 -13 -4 -19 -1 -19 9 0 20 -10 20 -39 0 -22 -16 -23 -16 -16 5 6 18 2 21
-25 21 -21 0 -29 4 -24 12 7 11 -30 7 -70 -8 -16 -6 -17 -5 -7 15 7 12 9 30 6
41 -5 17 -9 18 -27 7 -16 -9 -22 -9 -25 1 -6 16 -24 15 -59 -3 -48 -25 -73
-17 -36 11 16 13 16 13 0 14 -10 0 -18 -4 -18 -10 0 -5 -9 -10 -20 -10 -11 0
-20 5 -20 10 0 6 5 10 11 10 5 0 7 5 4 10 -9 15 -19 12 -43 -11z m155 -44 c-8
-8 -16 -10 -22 -4 -6 7 -5 13 5 19 20 12 32 2 17 -15z m-55 -27 c-7 -7 -12 -8
-12 -2 0 14 12 26 19 19 2 -3 -1 -11 -7 -17z m-156 -50 c-11 -6 -33 -11 -50
-10 -16 0 -38 -4 -48 -9 -14 -7 -18 -6 -18 5 0 14 27 20 105 24 27 1 28 0 11
-10z m154 2 c0 -5 -9 -10 -21 -10 -11 0 -17 5 -14 10 3 6 13 10 21 10 8 0 14
-4 14 -10z m-73 -6 c-3 -3 -12 -4 -19 -1 -8 3 -5 6 6 6 11 1 17 -2 13 -5z
m354 -261 c13 -15 12 -15 -8 -4 -24 12 -29 21 -14 21 5 0 15 -7 22 -17z m-540
-256 c-10 -9 -11 -8 -5 6 3 10 9 15 12 12 3 -3 0 -11 -7 -18z m89 -12 c0 -8 5
-15 11 -15 7 0 9 -9 6 -22 -3 -13 1 -41 9 -63 19 -56 18 -58 -22 -50 -46 8
-104 45 -104 66 0 10 -7 16 -17 15 -11 0 -18 6 -18 18 0 13 16 25 60 41 73 29
75 29 75 10z m200 -335 c0 -5 -5 -10 -11 -10 -5 0 -7 5 -4 10 3 6 8 10 11 10
2 0 4 -4 4 -10z"/>
<path d="M590 6830 c-9 -6 -10 -10 -3 -10 6 0 15 5 18 10 8 12 4 12 -15 0z"/>
<path d="M4440 6830 c0 -5 5 -10 10 -10 6 0 10 5 10 10 0 6 -4 10 -10 10 -5 0
-10 -4 -10 -10z"/>
<path d="M871 6819 c-13 -5 -22 -12 -19 -14 6 -6 58 12 58 20 0 7 -11 5 -39
-6z"/>
<path d="M4266 6816 c10 -8 21 -12 24 -10 5 6 -21 24 -34 24 -6 0 -1 -6 10
-14z"/>
<path d="M638 6813 c7 -3 16 -2 19 1 4 3 -2 6 -13 5 -11 0 -14 -3 -6 -6z"/>
<path d="M810 6790 c-9 -6 -10 -10 -3 -10 6 0 15 5 18 10 8 12 4 12 -15 0z"/>
<path d="M4240 6794 c0 -9 24 -30 43 -37 10 -4 16 -11 12 -17 -11 -17 45 -24
62 -7 18 18 10 37 -16 37 -9 0 -23 6 -30 13 -11 10 -11 8 -2 -10 6 -13 17 -23
23 -23 6 0 8 -3 5 -7 -4 -3 -20 5 -35 19 -26 24 -62 43 -62 32z"/>
<path d="M4500 6737 c18 -19 22 -20 30 -7 13 20 12 30 -1 30 -5 0 -7 -4 -4
-10 8 -13 -17 -13 -33 0 -7 5 -3 0 8 -13z"/>
<path d="M730 6741 c-15 -4 -20 -10 -13 -14 13 -8 43 1 43 14 0 5 -1 9 -2 8
-2 -1 -14 -4 -28 -8z"/>
<path d="M4590 6735 c6 -8 9 -19 5 -24 -3 -6 3 -21 14 -33 31 -33 27 -58 -4
-28 -14 13 -27 22 -29 19 -2 -2 19 -26 46 -53 48 -46 50 -47 43 -20 -4 16 -8
36 -10 44 -6 28 -24 65 -44 88 -21 24 -41 31 -21 7z"/>
<path d="M4542 6710 c-11 -17 -10 -20 8 -17 27 4 33 12 17 25 -10 8 -16 6 -25
-8z"/>
<path d="M683 6713 c-22 -8 -14 -23 12 -23 16 0 25 6 25 15 0 15 -14 18 -37 8z"/>
<path d="M4359 6704 c-12 -15 -11 -16 9 -10 12 4 22 3 22 -2 0 -6 -5 -12 -12
-14 -8 -3 -4 -12 10 -26 17 -17 22 -18 22 -7 0 8 -5 15 -12 15 -9 0 -9 3 0 12
7 7 8 17 1 30 -12 22 -23 23 -40 2z"/>
<path d="M4304 6695 c21 -16 32 -13 21 4 -3 6 -14 11 -23 11 -15 -1 -15 -2 2
-15z"/>
<path d="M4248 6683 c7 -3 16 -2 19 1 4 3 -2 6 -13 5 -11 0 -14 -3 -6 -6z"/>
<path d="M4148 6633 c7 -3 16 -2 19 1 4 3 -2 6 -13 5 -11 0 -14 -3 -6 -6z"/>
<path d="M3848 6582 c-16 -9 -28 -20 -28 -24 0 -15 25 -7 55 17 35 29 15 34
-27 7z"/>
<path d="M3756 6544 c-5 -14 -4 -15 9 -4 17 14 19 20 6 20 -5 0 -12 -7 -15
-16z"/>
<path d="M1215 6420 c3 -5 10 -10 16 -10 5 0 9 5 9 10 0 6 -7 10 -16 10 -8 0
-12 -4 -9 -10z"/>
<path d="M4786 6123 c-20 -197 -106 -614 -178 -863 -86 -296 -186 -590 -245
-720 -67 -148 -89 -186 -103 -183 -12 4 -12 3 -2 -5 11 -7 4 -24 -34 -81 -48
-73 -72 -92 -33 -27 17 29 18 36 6 36 -8 0 -17 -9 -20 -20 -4 -17 -14 -20 -60
-20 -58 0 -81 -14 -75 -47 2 -11 -6 -22 -19 -28 -13 -5 -23 -13 -23 -17 0 -5
-18 -8 -40 -8 -29 0 -40 4 -40 15 0 16 -20 19 -57 9 -16 -4 -23 -14 -23 -30 0
-21 -5 -24 -40 -24 -30 0 -40 -4 -40 -16 0 -14 -2 -15 -17 -3 -15 13 -15 14 0
17 10 2 17 8 17 14 0 13 -56 68 -69 68 -6 0 -11 8 -11 18 0 10 -15 23 -40 34
-28 12 -40 23 -40 37 0 16 -6 21 -29 21 -49 0 -91 12 -91 25 0 8 -27 26 -60
42 -39 18 -60 34 -60 46 0 9 -4 17 -10 17 -5 0 -10 -6 -10 -14 0 -8 5 -18 10
-21 6 -3 10 -15 10 -25 0 -10 6 -21 13 -23 10 -4 10 -6 0 -6 -7 -1 -13 -6 -13
-11 0 -14 -15 -33 -66 -84 -89 -89 -96 -93 -162 -100 -76 -8 -92 -14 -92 -31
0 -7 -9 -15 -20 -18 -11 -3 -20 -12 -20 -20 0 -27 -45 -45 -128 -52 -93 -9
-152 -1 -152 20 0 18 -47 65 -65 65 -21 0 -19 4 21 44 21 21 46 36 60 36 21 0
24 4 24 40 0 31 4 40 18 41 33 2 37 4 70 28 17 14 32 31 32 38 0 7 3 13 8 13
4 0 13 13 20 28 7 16 25 35 40 43 33 17 42 28 42 53 0 14 -5 17 -22 12 -13 -4
-79 -11 -148 -17 -69 -5 -138 -13 -154 -19 -25 -9 -28 -8 -23 10 6 22 0 25
-22 11 -8 -5 -11 -16 -8 -24 4 -11 -3 -20 -24 -29 -16 -7 -29 -16 -29 -20 0
-5 -7 -8 -15 -8 -9 0 -35 -9 -57 -20 -43 -21 -168 -29 -168 -11 0 5 -19 11
-42 14 -55 6 -118 29 -118 42 -1 19 -222 115 -267 115 -14 0 -33 5 -43 10 -13
7 -21 7 -25 0 -3 -5 3 -10 14 -10 12 0 21 -4 21 -10 0 -5 -11 -10 -25 -10 -14
0 -25 -4 -25 -10 0 -13 32 -28 47 -23 7 3 18 -7 24 -21 7 -14 18 -26 26 -26
28 0 11 -29 -27 -44 -40 -16 -54 -36 -24 -36 22 0 64 -41 64 -62 0 -12 8 -18
24 -18 14 0 30 -10 40 -25 21 -31 20 -55 -1 -55 -14 0 -14 -2 2 -20 18 -20 18
-21 -3 -42 -18 -18 -23 -19 -37 -8 -10 8 -34 13 -55 11 -40 -3 -85 16 -116 46
-12 13 -19 14 -22 5 -6 -18 -35 -15 -58 6 -10 10 -27 21 -37 25 -10 4 -15 12
-12 17 4 6 1 17 -5 25 -9 11 -9 15 -1 15 17 0 13 18 -9 40 -14 14 -33 20 -65
20 -25 0 -45 5 -45 10 0 6 -14 10 -31 10 -27 0 -30 -2 -19 -16 11 -12 11 -18
-2 -31 -15 -14 -18 -14 -36 3 -23 23 -37 124 -17 124 7 0 16 7 19 16 9 25 7
64 -4 64 -5 0 -10 -9 -10 -20 0 -11 -4 -20 -9 -20 -8 0 -23 -21 -74 -104 -10
-16 -24 -47 -32 -70 -18 -55 -30 -176 -18 -185 8 -5 1 -188 -8 -194 -68 -45
-88 -54 -123 -52 -21 1 -42 8 -46 15 -5 7 -21 14 -37 16 -38 4 -144 75 -254
169 -124 105 -215 225 -294 383 -36 72 -65 135 -65 140 0 5 -10 28 -21 53 -12
24 -59 157 -104 294 -74 222 -105 327 -162 540 -9 33 -22 79 -29 103 -8 23
-14 52 -14 62 0 21 -16 55 -37 78 -7 7 -13 19 -13 26 0 11 -41 26 -71 26 -12
0 -12 -2677 -1 -2682 5 -1 12 -18 15 -36 5 -24 3 -34 -8 -38 -8 -4 -15 -13
-15 -21 0 -11 7 -13 30 -8 39 9 39 -3 0 -16 -26 -10 -30 -16 -30 -49 0 -28 5
-40 17 -43 17 -4 17 -5 1 -6 -15 -1 -18 -12 -18 -75 0 -50 4 -76 13 -79 8 -4
9 -8 1 -14 -6 -4 -12 -38 -13 -75 -1 -59 1 -68 20 -78 11 -7 30 -10 40 -7 10
3 19 1 19 -3 0 -5 14 -10 32 -12 17 -2 34 -9 36 -17 3 -10 -3 -12 -27 -9 -35
5 -37 -10 -4 -27 18 -9 19 -13 7 -29 -7 -11 -11 -22 -9 -27 3 -4 -4 -14 -16
-22 l-21 -15 21 -12 c28 -15 44 -3 37 26 -6 22 -3 24 36 25 30 2 35 3 16 6
-17 3 -28 11 -28 20 0 14 13 15 101 10 76 -5 99 -3 96 6 -2 7 -17 13 -33 14
-54 2 -114 16 -109 23 3 5 -1 11 -7 13 -7 3 2 3 19 0 39 -7 43 4 8 17 -26 10
-35 39 -12 41 36 3 93 -4 101 -12 6 -5 25 -9 43 -9 23 0 33 -5 33 -15 0 -8 -4
-15 -10 -15 -14 0 -5 -81 10 -90 9 -6 9 -9 -1 -12 -8 -3 -14 -18 -14 -34 0
-27 -2 -28 -45 -27 -25 1 -34 -1 -20 -3 51 -10 67 -24 66 -59 -1 -19 -5 -37
-9 -41 -3 -4 -4 -18 -1 -30 4 -17 1 -26 -10 -30 -13 -5 -14 -10 -5 -20 11 -14
7 -203 -5 -222 -14 -22 10 -18 27 4 10 13 13 24 8 24 -13 0 -11 69 1 76 5 3 4
12 -2 19 -8 9 -7 25 1 56 11 44 15 70 17 123 2 21 6 27 17 22 16 -6 21 19 6
28 -18 11 -10 76 11 90 20 14 20 14 -1 21 -12 3 -21 13 -21 22 0 12 3 13 14 4
17 -14 29 8 15 30 -6 10 -9 10 -9 2 0 -7 -4 -13 -10 -13 -5 0 -10 9 -10 21 0
14 5 19 14 16 8 -3 20 0 26 8 9 11 7 12 -9 8 -23 -6 -38 18 -25 39 5 7 7 21 6
31 -2 12 3 17 18 17 17 0 19 -3 10 -19 -7 -13 -7 -22 0 -26 5 -3 10 2 10 11 0
10 6 25 14 33 8 9 18 34 22 56 7 38 6 39 -11 25 -16 -13 -17 -12 -14 5 3 11 9
20 14 20 20 0 34 16 40 46 4 17 14 42 22 57 14 26 15 26 9 -20 -3 -27 -2 -48
3 -48 14 0 29 23 33 50 2 21 9 25 42 28 25 2 36 0 31 -7 -3 -6 -14 -11 -24
-11 -18 0 -41 -18 -41 -32 0 -4 12 -8 28 -9 26 -1 26 -2 -10 -17 -39 -18 -52
-38 -19 -29 11 2 35 1 53 -3 28 -7 29 -8 8 -9 -14 -1 -40 -10 -59 -20 -26 -14
-30 -19 -17 -24 9 -4 27 -2 41 3 17 7 32 5 52 -5 30 -16 30 -16 -4 -20 -35 -4
-55 -14 -48 -25 4 -6 10 -8 14 -6 4 3 21 1 37 -3 l29 -8 -30 -12 c-59 -23 -61
-25 -22 -29 22 -2 37 -8 37 -16 0 -17 -25 -38 -33 -29 -4 3 -7 -1 -7 -10 0 -9
5 -17 10 -17 6 0 10 -4 10 -10 0 -5 -9 -10 -20 -10 -24 0 -26 -16 -4 -28 20
-11 9 -34 -14 -30 -12 2 -16 -3 -15 -17 1 -10 -2 -27 -7 -36 -6 -10 -4 -23 5
-36 13 -19 13 -21 -5 -26 -13 -3 -20 -14 -20 -30 0 -14 -6 -27 -12 -30 -9 -3
-7 -10 7 -26 19 -21 19 -23 2 -33 -12 -6 -16 -16 -12 -29 5 -14 0 -26 -12 -35
-13 -11 -14 -17 -5 -20 19 -9 14 -32 -9 -39 -15 -5 -18 -10 -10 -18 16 -16 13
-37 -5 -37 -13 0 -15 -7 -10 -30 3 -19 1 -30 -5 -30 -7 0 -9 -11 -6 -29 4 -19
1 -33 -8 -41 -8 -7 -13 -21 -12 -33 1 -15 -5 -22 -23 -27 -29 -7 -35 -37 -7
-32 34 6 14 -30 -23 -43 -31 -10 -32 -12 -12 -17 28 -8 29 -35 1 -43 l-21 -7
21 -15 c23 -16 20 -36 -4 -26 -18 6 -21 -27 -5 -43 15 -15 1 -47 -14 -35 -7 6
-17 6 -26 0 -13 -8 -13 -10 -1 -18 8 -5 20 -7 28 -4 17 7 17 -21 0 -36 -12 -9
-17 -32 -19 -91 0 -8 -9 -39 -19 -68 -10 -29 -19 -62 -19 -72 0 -12 -7 -20
-16 -20 -12 0 -15 6 -10 25 4 17 1 31 -9 42 -21 20 -30 10 -15 -17 9 -17 9
-25 -2 -38 -15 -18 -13 -52 3 -52 5 0 9 -20 9 -45 0 -35 -4 -47 -21 -55 -19
-11 -19 -13 -4 -24 16 -11 15 -14 -10 -30 -17 -11 -37 -16 -55 -13 -33 7 -100
46 -100 58 0 5 -4 9 -10 9 -5 0 -7 -7 -3 -16 3 -9 -3 -22 -18 -32 -25 -17 -27
-18 -71 -20 l-28 -2 0 -195 c0 -123 4 -195 10 -195 6 0 10 -9 10 -20 0 -24 25
-27 34 -3 8 19 22 8 28 -22 l5 -20 8 20 c19 44 49 46 40 2 -5 -29 -4 -30 8
-15 21 27 39 22 36 -9 -4 -52 0 -66 14 -55 10 9 12 4 9 -22 -2 -21 2 -39 12
-49 26 -25 21 -97 -9 -129 -27 -29 -30 -38 -16 -38 16 0 100 -54 106 -69 9
-22 35 -154 35 -178 0 -22 4 -23 65 -23 l65 0 0 55 c0 30 5 55 10 55 6 0 10
-4 10 -9 0 -5 11 -12 24 -15 31 -8 86 -54 86 -72 0 -10 15 -14 59 -14 53 0 59
2 54 19 -3 11 -14 21 -25 24 -11 3 -22 15 -25 26 -3 13 -10 18 -20 14 -9 -4
-19 1 -25 10 -5 10 -15 17 -23 17 -8 0 -19 9 -25 20 -6 11 -17 20 -25 20 -17
0 -18 6 -15 76 1 29 -3 55 -8 58 -18 11 -23 -12 -13 -51 8 -27 7 -39 -1 -45
-16 -9 -17 -8 -34 47 -12 41 -12 46 1 41 12 -4 15 6 16 57 1 34 1 68 0 75 -1
6 3 12 8 12 15 0 23 -36 15 -75 -6 -36 8 -50 20 -19 9 23 21 8 21 -24 0 -17 6
-28 17 -30 13 -2 18 3 18 17 0 11 4 22 9 25 4 3 11 -22 14 -57 4 -42 2 -64 -6
-69 -8 -5 -9 -10 -1 -18 8 -8 14 1 23 29 13 46 28 60 38 35 4 -10 2 -19 -5
-22 -7 -2 -12 -21 -11 -45 1 -23 4 -33 6 -22 6 21 21 35 39 35 7 0 15 -21 19
-47 5 -37 9 -44 16 -30 15 26 29 20 29 -12 0 -25 3 -28 25 -23 26 5 31 -3 15
-28 -24 -38 -3 -40 412 -40 341 0 399 2 389 14 -7 9 -9 29 -5 55 4 28 3 41 -5
41 -6 0 -11 -13 -11 -30 0 -23 -5 -30 -19 -30 -10 0 -24 6 -30 14 -6 7 -28 16
-49 20 -67 11 -367 150 -507 236 -16 10 -55 31 -85 46 -30 14 -81 40 -113 55
-32 16 -64 29 -73 29 -8 0 -17 7 -20 15 -4 8 -13 15 -21 15 -12 0 -13 8 -8 43
4 23 14 60 22 82 7 22 16 47 18 55 2 8 15 44 29 79 14 36 26 68 26 73 0 5 9
27 19 51 23 49 61 149 61 159 0 4 -13 5 -29 2 -17 -4 -38 0 -52 9 -40 25 -86
30 -111 13 -22 -16 -22 -16 10 -16 17 0 32 -4 32 -10 0 -15 -33 -12 -57 5 -11
8 -39 17 -62 21 -34 5 -41 10 -41 29 0 17 8 24 33 30 l32 8 -29 6 c-37 7 -31
27 6 23 33 -4 43 11 26 38 -10 15 -10 24 -1 38 7 12 8 24 2 33 -18 28 -10 40
23 37 39 -4 47 14 13 32 -20 11 -22 16 -13 27 7 9 21 12 34 9 25 -7 42 10 26
26 -5 5 -18 11 -28 12 -11 2 -19 9 -19 17 0 10 10 13 38 11 35 -3 38 -2 35 19
-4 27 22 37 56 21 48 -23 146 -39 146 -23 0 11 -119 61 -146 61 -19 0 -25 5
-22 18 4 22 78 31 78 9 0 -10 17 -16 52 -20 32 -4 60 -14 72 -27 20 -19 20
-20 1 -34 -15 -11 -17 -17 -8 -28 7 -8 8 -19 4 -27 -11 -17 -45 -9 -117 26
-39 19 -60 24 -81 18 l-28 -7 25 -10 c14 -6 54 -21 90 -33 43 -15 66 -29 68
-40 3 -14 -1 -17 -20 -13 -12 3 -31 9 -40 13 -13 5 -18 3 -18 -9 0 -9 8 -16
18 -16 24 0 68 -45 53 -55 -6 -3 -9 -11 -5 -17 4 -5 18 1 34 17 l27 26 12 -46
c10 -39 15 -46 31 -42 10 3 27 -1 37 -8 11 -8 27 -13 37 -12 11 1 21 -4 23
-10 6 -18 -32 -16 -51 2 -29 29 -65 16 -56 -20 2 -5 6 -23 9 -40 5 -21 13 -30
26 -31 11 0 33 -6 48 -12 25 -10 28 -16 22 -41 -4 -17 -2 -32 5 -36 6 -4 8
-15 5 -25 -3 -11 1 -30 10 -44 15 -23 15 -25 -2 -35 -17 -9 -17 -11 3 -30 15
-13 20 -27 17 -45 -3 -14 -1 -32 4 -39 6 -6 13 -24 17 -39 5 -22 3 -28 -10
-28 -12 0 -14 -4 -7 -12 17 -22 55 -156 48 -167 -3 -6 -13 -11 -21 -11 -19 0
-18 -16 1 -24 18 -7 20 -46 2 -46 -7 0 -18 5 -25 12 -6 6 -14 9 -17 6 -3 -3 0
-12 8 -19 13 -14 17 -22 17 -37 0 -4 14 -12 32 -17 36 -11 48 -32 23 -41 -9
-4 -25 2 -39 15 -24 22 -46 28 -46 11 0 -11 74 -46 107 -52 14 -2 17 3 15 24
-2 25 -1 26 27 18 28 -8 41 -5 41 10 0 3 -22 12 -49 19 -27 7 -52 19 -55 28
-8 20 11 43 35 43 26 0 33 17 12 30 -14 8 -9 10 27 8 41 -2 45 -1 42 20 -2 15
2 22 12 22 10 0 16 -9 16 -25 0 -14 7 -36 15 -49 15 -22 14 -24 -5 -29 -33 -8
-23 -22 35 -52 31 -15 54 -33 52 -39 -3 -6 -11 -10 -18 -8 -8 2 -22 4 -31 5
-10 1 -18 5 -18 9 0 9 -34 11 -43 2 -6 -6 32 -40 67 -60 34 -18 43 -42 22 -57
-17 -13 -17 -15 13 -40 17 -14 31 -30 31 -36 0 -6 5 -11 10 -11 6 0 10 7 10
15 0 20 20 19 49 -1 19 -14 25 -14 32 -3 14 23 10 29 -20 29 -29 0 -61 22 -61
41 0 5 11 7 25 3 28 -7 34 11 15 46 -13 25 12 47 30 25 7 -8 18 -15 26 -15 22
0 25 -18 15 -75 -12 -63 1 -109 29 -102 25 6 36 -14 35 -70 0 -44 3 -53 18
-53 9 0 17 7 17 15 0 8 4 15 9 15 4 0 6 11 3 25 -2 15 0 25 7 25 6 0 11 11 11
25 0 14 -4 25 -10 25 -5 0 -10 25 -10 56 0 49 2 54 15 40 8 -8 15 -19 15 -24
0 -6 7 -12 15 -16 8 -3 15 -13 15 -23 0 -10 6 -30 14 -44 7 -14 16 -47 20 -73
7 -43 9 -46 36 -46 l29 0 -6 53 c-3 28 -13 64 -21 79 -14 25 -14 29 1 46 21
23 21 43 0 90 -18 39 -41 134 -47 192 -2 19 -12 53 -21 74 -30 71 -60 259 -44
287 6 13 6 25 -1 38 -12 24 -13 51 -1 51 5 0 11 -18 15 -40 3 -22 11 -40 17
-40 10 0 4 55 -13 99 -8 23 -1 282 9 311 4 11 9 6 19 -15 15 -35 18 -15 5 33
-5 17 -13 87 -16 153 -4 67 -10 133 -14 148 -8 26 10 77 22 64 4 -3 7 0 7 8 0
8 7 4 16 -9 9 -13 13 -26 9 -30 -3 -3 -11 0 -16 8 -9 12 -10 12 -5 -3 3 -10 6
-23 6 -28 0 -5 11 -7 25 -3 20 5 26 1 35 -20 5 -14 13 -25 17 -24 11 2 128
-70 168 -105 18 -15 37 -27 43 -27 5 0 15 -7 22 -15 9 -11 17 -12 33 -4 18 10
19 12 4 21 -10 5 -17 18 -17 28 0 10 -6 23 -14 27 -7 4 -19 19 -26 33 -7 14
-26 42 -43 63 -18 23 -27 45 -24 57 3 10 -2 28 -10 39 -8 12 -11 26 -8 31 8
13 35 13 35 0 0 -5 6 -10 14 -10 8 0 22 -9 30 -21 8 -12 19 -18 25 -14 6 3 11
0 11 -7 0 -7 14 -22 30 -33 16 -11 30 -23 30 -27 0 -5 6 -8 13 -8 6 0 25 -18
41 -40 17 -22 37 -40 47 -40 9 0 19 -7 23 -15 3 -8 11 -15 19 -15 7 0 28 -13
46 -29 27 -24 29 -30 15 -35 -9 -3 -23 -1 -31 5 -11 10 -18 7 -34 -9 -11 -12
-27 -22 -36 -22 -13 0 -12 -4 6 -24 13 -14 21 -30 19 -38 -3 -7 2 -19 9 -27
10 -10 11 -17 4 -24 -6 -6 -11 -20 -11 -31 0 -16 5 -14 25 14 27 37 31 51 14
47 -15 -3 -32 54 -20 66 5 5 14 -1 21 -14 7 -13 14 -25 15 -26 0 -2 26 6 56
17 65 24 73 24 94 4 9 -9 19 -14 22 -10 4 3 1 12 -5 18 -25 25 -12 55 50 112
34 31 55 56 47 56 -8 0 -24 -7 -35 -15 -10 -8 -29 -15 -41 -15 -13 0 -32 -9
-44 -21 -25 -25 -67 -22 -83 5 -6 11 -23 33 -38 49 -16 17 -28 36 -28 43 0 8
-7 14 -15 14 -8 0 -15 4 -15 8 0 12 -49 70 -106 127 -28 27 -64 70 -79 95 -15
24 -34 51 -42 58 -7 7 -13 28 -13 45 -1 33 -20 67 -38 67 -9 0 -24 36 -27 65
-1 6 -11 28 -22 50 -11 22 -22 45 -23 50 0 6 -10 13 -21 17 -33 12 -21 28 22
28 51 0 43 14 -21 35 -50 17 -73 36 -52 43 20 6 13 32 -8 32 -12 0 -20 7 -20
18 0 9 -9 23 -20 30 -11 7 -20 22 -20 35 0 12 -9 30 -19 39 -18 16 -20 16 -24
0 -3 -9 -4 1 -2 22 2 23 -2 48 -11 60 -18 26 -18 36 1 36 11 0 15 11 15 38 0
32 5 41 26 51 22 10 24 14 14 27 -11 12 -10 17 6 29 22 17 34 19 34 5 0 -5 19
-27 42 -50 40 -38 41 -40 22 -54 -28 -22 -7 -40 31 -26 31 12 47 4 25 -11 -11
-8 -8 -9 14 -4 27 6 28 5 11 -11 -25 -25 -16 -106 16 -141 37 -40 81 -55 121
-41 46 16 89 59 92 92 2 16 8 31 14 35 6 3 15 19 21 34 9 23 8 27 -7 28 -9 1
-21 2 -27 3 -5 0 -24 16 -42 34 -22 22 -41 32 -61 32 -30 0 -30 1 -19 31 11
28 15 30 45 25 19 -3 30 -1 27 5 -12 19 33 8 70 -17 33 -22 42 -24 60 -14 18
9 42 9 115 -4 107 -18 121 -19 101 -7 -9 6 14 9 65 8 43 -1 131 6 194 16 63 9
167 24 230 33 63 9 152 27 198 40 45 13 89 24 97 24 13 0 15 -19 10 -137 -3
-75 -9 -141 -14 -147 -5 -6 -12 -29 -16 -51 -4 -22 -11 -44 -15 -50 -3 -5 -12
-29 -18 -51 -7 -23 -19 -47 -27 -54 -8 -7 -15 -23 -15 -36 0 -13 -6 -24 -12
-24 -7 0 -24 -10 -38 -21 l-25 -20 24 6 c14 4 22 3 20 -3 -12 -32 -192 -219
-337 -350 -93 -85 -111 -109 -69 -96 22 6 22 6 -3 -22 -14 -16 -29 -32 -34
-35 -4 -4 -2 -9 5 -11 10 -4 1 -17 -26 -42 -45 -42 -26 -36 25 7 23 20 30 31
22 36 -17 10 63 92 152 156 40 29 91 78 119 115 65 86 84 107 143 158 27 23
59 52 70 62 34 31 38 0 9 -59 -14 -27 -25 -58 -25 -69 0 -12 -4 -24 -10 -27
-5 -3 -10 -13 -10 -21 0 -9 -7 -22 -16 -31 -8 -9 -13 -22 -10 -29 3 -7 1 -16
-4 -19 -6 -4 -10 -15 -10 -27 0 -11 -10 -34 -22 -50 -18 -25 -19 -34 -9 -50
10 -17 8 -22 -13 -39 -35 -28 -56 -109 -28 -109 9 0 32 50 32 70 0 9 9 25 19
34 11 10 23 32 27 49 4 18 17 46 30 63 13 17 24 41 24 52 0 15 6 22 19 22 15
0 20 10 26 47 8 56 33 103 55 103 13 0 13 2 0 11 -11 8 -12 12 -2 16 7 2 12
22 12 45 0 25 9 57 24 82 13 23 26 55 30 71 13 55 30 84 54 90 14 3 20 10 16
18 -4 7 1 5 12 -4 23 -19 82 -19 93 0 5 7 29 16 55 18 25 3 46 10 46 15 0 7
-24 8 -65 3 -36 -3 -65 -3 -65 2 0 13 14 29 35 41 19 11 19 11 -2 12 -13 0
-23 4 -23 8 0 13 32 39 58 47 19 5 22 12 18 31 -4 15 -2 24 5 24 6 0 23 9 38
19 15 11 40 21 56 23 26 4 28 5 11 13 -13 5 -36 3 -65 -7 -70 -24 -111 -31
-111 -19 0 6 6 11 14 11 8 0 27 6 43 14 39 20 138 40 159 32 16 -6 16 -7 0
-19 -16 -12 -16 -14 3 -31 15 -14 30 -17 63 -13 24 4 45 6 47 6 13 2 -36 30
-51 31 -10 0 -18 4 -18 9 0 24 85 28 114 6 30 -22 45 -17 17 5 -13 12 -39 20
-60 20 -20 1 -47 7 -61 15 l-25 13 28 11 c16 6 36 11 45 11 27 1 -6 16 -50 24
-21 4 -38 12 -38 18 0 7 25 9 75 6 41 -3 75 -2 75 1 0 6 -54 25 -120 44 -12 4
-11 6 4 13 27 11 138 -14 154 -34 8 -11 9 -18 2 -20 -15 -5 -12 -32 5 -38 13
-5 13 -9 3 -21 -10 -12 -9 -18 5 -28 19 -14 23 -45 5 -45 -9 0 -9 -3 0 -12 21
-21 13 -28 -28 -28 -30 0 -40 -4 -40 -16 0 -8 5 -12 11 -9 6 4 27 4 47 0 34
-6 35 -8 19 -20 -11 -8 -32 -11 -52 -8 -18 3 -35 1 -39 -5 -3 -6 13 -13 39
-16 70 -11 58 -37 -18 -38 -31 -1 -37 -3 -22 -9 11 -4 34 -8 50 -9 17 0 38 -7
49 -15 17 -13 16 -14 -17 -20 -19 -4 -69 -4 -112 -1 -59 5 -76 4 -73 -6 3 -8
34 -13 98 -15 51 -1 95 -5 98 -8 12 -12 -35 -34 -71 -33 -21 0 -41 -2 -44 -6
-4 -3 23 -6 60 -6 92 0 101 -29 15 -44 -66 -12 -45 -29 28 -23 41 3 62 1 56
-5 -5 -5 -25 -10 -45 -11 -20 -2 -42 -8 -49 -15 -16 -16 -43 -15 -57 2 -11 13
-18 12 -54 -3 -33 -14 -207 -51 -241 -51 -4 0 -5 -18 -4 -40 2 -24 8 -40 16
-40 14 0 16 -36 2 -45 -6 -4 -8 -11 -5 -16 9 -14 41 -11 54 5 7 8 27 17 46 20
43 8 53 24 24 34 -20 8 -19 10 20 25 23 9 48 17 56 17 8 0 15 4 15 9 0 15 -80
18 -92 3 -32 -38 -118 -46 -118 -12 0 21 27 31 90 35 25 2 58 10 74 18 41 22
113 -5 76 -28 -6 -4 -1 -14 11 -24 l22 -18 -21 -15 -22 -15 26 -11 c48 -22 8
-45 -119 -67 -43 -8 -84 -12 -92 -9 -7 3 -18 -3 -24 -15 -9 -16 -8 -21 10 -26
16 -5 19 -12 15 -30 -8 -31 8 -40 36 -21 13 8 55 20 93 26 39 6 78 13 88 16 9
3 17 1 17 -5 0 -5 -20 -13 -45 -16 -56 -9 -83 -35 -36 -35 17 0 31 4 31 9 0 5
24 17 53 25 68 21 84 31 61 40 -16 6 -16 8 0 25 15 16 15 19 1 24 -30 12 -14
24 48 35 34 6 82 15 107 20 57 13 63 8 16 -14 -20 -10 -36 -21 -36 -25 0 -14
21 -21 33 -11 7 5 41 18 77 27 36 10 75 24 87 31 12 8 33 14 45 14 18 0 20 2
8 9 -8 6 -18 8 -22 5 -4 -3 -31 -9 -60 -14 -29 -4 -61 -11 -70 -15 -10 -4 -18
-3 -18 3 0 5 20 17 44 26 25 9 50 24 57 33 12 14 9 15 -29 12 -23 -3 -42 -3
-42 -2 0 9 47 43 61 43 9 0 23 7 30 16 15 18 19 18 -81 -3 -19 -4 -15 1 18 23
l43 29 -33 6 -33 5 58 28 c31 16 57 30 57 32 0 2 -18 1 -40 -2 -52 -9 -52 9 0
30 47 19 97 23 68 5 -25 -14 -22 -39 5 -39 21 -1 21 -2 -7 -25 l-30 -24 27 -6
c17 -5 27 -14 27 -25 0 -19 30 -36 39 -22 9 14 41 10 41 -4 0 -7 -18 -18 -40
-24 -68 -18 -61 -34 13 -28 66 6 67 5 67 -19 0 -13 7 -31 15 -39 8 -9 15 -22
15 -30 0 -20 -57 -14 -70 6 -8 12 -10 12 -10 -3 0 -10 -4 -16 -8 -13 -5 3 -26
-1 -48 -9 -38 -13 -38 -13 47 -12 47 0 90 -3 96 -6 12 -7 30 -126 25 -162 -1
-10 -8 -23 -15 -27 -13 -8 -12 -8 42 -11 30 -2 41 -27 12 -27 -14 0 -21 -6
-21 -19 0 -23 16 -36 25 -21 10 16 35 12 29 -5 -4 -9 -11 -14 -18 -13 -13 2
-76 -34 -76 -44 0 -4 20 -6 45 -3 34 3 45 0 45 -11 0 -9 -11 -14 -35 -14 -19
0 -35 -4 -35 -10 0 -5 -12 -10 -26 -10 -14 0 -23 -4 -20 -9 4 -5 31 -8 61 -7
56 2 74 -14 22 -20 -15 -1 -36 -9 -48 -17 -20 -14 -19 -15 18 -22 22 -3 44 -5
49 -3 5 2 11 -1 14 -7 3 -5 -10 -11 -27 -13 -41 -4 -42 -16 -3 -32 23 -10 33
-10 45 0 8 6 23 9 35 5 30 -9 7 -35 -31 -35 -18 0 -29 -5 -29 -14 0 -17 34
-27 71 -19 18 3 29 1 29 -6 0 -10 -22 -15 -57 -14 -7 1 -13 -3 -13 -8 0 -4
-18 -11 -41 -16 l-41 -8 21 -26 c21 -28 13 -49 -19 -49 -9 0 -25 -7 -36 -15
-18 -14 -18 -14 4 -15 12 0 39 7 59 15 20 9 45 13 55 9 19 -6 48 11 48 28 0 5
-17 8 -37 6 -33 -3 -38 0 -41 20 -2 13 2 22 10 23 7 0 22 3 33 5 11 3 48 6 82
7 58 2 63 4 63 25 0 13 -6 22 -15 22 -19 0 -19 24 0 44 18 18 19 42 3 50 -10
5 -10 7 -1 12 10 4 13 487 13 2300 0 1262 -2 2294 -4 2294 -2 0 -6 -30 -10
-67z m-2586 -1783 c0 -5 8 -10 17 -10 17 0 63 -37 63 -52 0 -4 -22 -8 -50 -8
-43 0 -50 3 -50 20 0 11 -4 20 -10 20 -5 0 -10 9 -10 20 0 13 7 20 20 20 11 0
20 -4 20 -10z m1240 -30 c0 -5 -4 -10 -10 -10 -5 0 -10 5 -10 10 0 6 5 10 10
10 6 0 10 -4 10 -10z m80 -50 c0 -5 -2 -10 -4 -10 -3 0 -8 5 -11 10 -3 6 -1
10 4 10 6 0 11 -4 11 -10z m-920 -85 c0 -17 -46 -39 -65 -31 -7 2 -15 14 -18
25 -5 19 -1 21 39 21 33 0 44 -4 44 -15z m1073 -262 c-7 -2 -21 -2 -30 0 -10
3 -4 5 12 5 17 0 24 -2 18 -5z m-1878 -100 c17 -16 45 -35 63 -42 18 -8 37
-22 43 -33 5 -10 13 -16 18 -14 4 3 20 -6 36 -20 15 -13 32 -24 37 -24 4 0 8
-7 8 -15 0 -11 11 -15 40 -15 23 0 60 -9 82 -20 23 -11 59 -20 80 -20 25 0 38
-5 38 -13 0 -11 -11 -12 -47 -7 -27 5 -51 6 -55 4 -3 -2 -30 2 -60 10 -29 9
-64 18 -78 21 -14 4 -34 10 -45 15 -11 5 -33 11 -48 15 -16 3 -40 17 -53 30
-14 14 -31 25 -38 25 -8 0 -19 7 -26 15 -7 8 -17 12 -22 9 -6 -4 -8 9 -6 32 2
29 -1 39 -12 40 -8 1 -21 2 -27 3 -7 0 -13 10 -13 20 0 40 34 33 85 -16z
m1783 19 c2 -7 -6 -12 -17 -12 -21 0 -27 11 -14 24 9 9 26 2 31 -12z m-673
-132 c-3 -5 -10 -10 -16 -10 -5 0 -9 5 -9 10 0 6 7 10 16 10 8 0 12 -4 9 -10z
m-165 -84 c0 -3 -4 -8 -10 -11 -5 -3 -10 -1 -10 4 0 6 5 11 10 11 6 0 10 -2
10 -4z m-42 -18 c-5 -15 -58 -24 -58 -9 0 11 17 19 43 20 11 1 17 -4 15 -11z
m-108 -12 c0 -2 -9 -6 -20 -9 -11 -3 -18 -1 -14 4 5 9 34 13 34 5z m-2390
-190 c0 -3 -4 -8 -10 -11 -5 -3 -10 -1 -10 4 0 6 5 11 10 11 6 0 10 -2 10 -4z
m416 -23 c-10 -10 -19 5 -10 18 6 11 8 11 12 0 2 -7 1 -15 -2 -18z m-438 -19
c-2 -12 6 -17 32 -20 59 -7 63 -11 38 -39 -21 -24 -68 -35 -68 -15 0 6 9 10
19 10 10 0 21 7 25 15 4 12 0 14 -22 8 -14 -3 -32 -6 -38 -6 -7 0 -10 -7 -6
-15 3 -10 1 -13 -6 -8 -7 4 -12 1 -12 -7 0 -10 16 -17 50 -22 28 -4 50 -12 50
-17 0 -6 7 -5 16 3 13 10 17 10 24 -2 14 -21 -7 -36 -30 -21 -45 28 -90 7 -57
-27 10 -11 1 -12 -51 -7 -67 8 -79 -5 -20 -19 32 -8 31 -8 -22 -15 -30 -4 -57
-5 -59 -3 -3 2 11 34 29 71 57 111 117 187 108 136z m465 -50 c-3 -8 -12 -13
-19 -10 -7 3 -16 1 -19 -4 -8 -13 -45 -13 -45 0 0 6 5 10 10 10 18 0 25 2 44
16 23 16 38 10 29 -12z m27 -64 c-7 -4 -10 -16 -7 -26 6 -22 -31 -95 -52 -102
-9 -3 -11 2 -6 17 3 11 2 29 -4 38 -9 17 -10 17 -16 0 -4 -9 -5 -29 -3 -42 3
-14 1 -25 -4 -25 -13 0 -38 -26 -32 -33 3 -3 13 -3 22 0 10 3 0 -7 -21 -22
-21 -14 -45 -24 -53 -21 -22 9 -16 24 14 34 26 9 27 9 5 16 -27 9 -30 21 -8
30 12 4 13 10 6 25 -9 15 -7 20 9 24 24 6 27 27 4 27 -8 0 -12 5 -9 10 3 6 15
10 25 10 10 0 25 7 34 15 8 8 25 15 38 15 16 0 30 11 43 33 19 31 20 31 23 8
2 -13 -2 -27 -8 -31z m-114 -5 c-21 -16 -32 -13 -21 4 3 6 14 11 23 11 15 -1
15 -2 -2 -15z m-289 -51 c5 -16 -34 -24 -47 -10 -5 7 -7 16 -3 20 10 10 46 3
50 -10z m-37 -44 c12 -8 12 -10 -3 -16 -12 -4 -15 -10 -7 -19 20 -25 -24 -35
-63 -14 l-21 12 22 8 c12 5 22 15 22 24 0 17 27 20 50 5z m3625 -70 c-11 -5
-27 -9 -35 -9 -9 0 -8 4 5 9 11 5 27 9 35 9 9 0 8 -4 -5 -9z m-3275 -49 c-5
-11 -7 -21 -2 -24 4 -2 1 -2 -6 -1 -7 2 -21 -2 -32 -8 -13 -9 -25 -9 -42 -1
-22 10 -21 11 15 18 21 4 41 14 44 21 3 8 12 14 19 14 11 0 12 -4 4 -19z
m3358 -60 c28 -2 10 -21 -20 -21 -40 0 -78 10 -78 19 0 6 38 7 98 2z m-258
-27 c0 -2 -9 -4 -21 -4 -11 0 -18 4 -14 10 5 8 35 3 35 -6z m-3107 -22 c-3 -9
-10 -22 -14 -28 -5 -6 -6 -14 -2 -17 7 -8 -16 -37 -29 -37 -6 0 -7 11 -4 25 5
18 2 25 -8 25 -31 0 -25 19 11 37 43 21 55 20 46 -5z m-439 -1 c3 -5 -3 -11
-14 -14 -20 -5 -35 5 -23 17 9 9 31 7 37 -3z m3827 -22 l24 -20 -35 6 c-19 3
-52 8 -72 12 -54 8 -47 23 11 23 35 0 55 -6 72 -21z m-3481 -5 c0 -8 -5 -12
-10 -9 -6 4 -8 11 -5 16 9 14 15 11 15 -7z m3166 -9 c-11 -8 -27 -15 -35 -15
-11 0 -10 4 5 15 10 8 26 14 34 14 11 0 10 -3 -4 -14z m-2939 -11 c-3 -3 -12
-4 -19 -1 -8 3 -5 6 6 6 11 1 17 -2 13 -5z m-207 -12 c0 -4 -9 -8 -20 -8 -11
0 -20 4 -20 8 0 4 9 8 20 8 11 0 20 -4 20 -8z m157 2 c-3 -3 -12 -4 -19 -1 -8
3 -5 6 6 6 11 1 17 -2 13 -5z m3288 -8 c34 -15 53 -55 20 -42 -9 3 -40 13 -70
22 -30 8 -55 20 -55 25 0 14 67 11 105 -5z m-279 -22 c-41 -15 -53 -13 -41 5
3 6 23 11 43 10 l37 0 -39 -15z m75 -44 c-2 -8 -3 -23 -3 -32 1 -22 -6 -26
-65 -38 -26 -5 -58 -12 -70 -16 -13 -4 -23 -2 -23 4 0 12 72 42 103 42 17 0
19 2 7 9 -8 6 -27 7 -42 4 -29 -6 -37 7 -15 25 30 25 115 27 108 2z m-3266
-30 c3 -5 -1 -10 -10 -10 -9 0 -13 5 -10 10 3 6 8 10 10 10 2 0 7 -4 10 -10z
m222 4 c-3 -3 -12 -4 -19 -1 -8 3 -5 6 6 6 11 1 17 -2 13 -5z m-302 -53 c3 -5
1 -12 -4 -15 -13 -8 -71 5 -71 15 0 12 67 11 75 0z m35 -1 c0 -5 -5 -10 -11
-10 -5 0 -7 5 -4 10 3 6 8 10 11 10 2 0 4 -4 4 -10z m3325 -20 c-3 -5 -17 -10
-30 -10 -13 0 -30 -7 -39 -15 -16 -16 -76 -21 -76 -6 0 14 19 24 60 32 55 11
92 10 85 -1z m-1691 -25 c-4 -8 -10 -15 -15 -15 -5 0 -9 7 -9 15 0 8 7 15 15
15 9 0 12 -6 9 -15z m-1710 -16 c-3 -5 -10 -7 -15 -3 -5 3 -7 10 -3 15 3 5 10
7 15 3 5 -3 7 -10 3 -15z m129 -5 c-7 -18 -43 -18 -43 0 0 8 6 16 13 19 19 7
36 -3 30 -19z m-133 -41 c2 -2 -2 -8 -10 -13 -9 -6 -17 -5 -21 2 -4 6 -18 8
-33 4 -20 -5 -26 -3 -26 10 0 13 7 15 43 9 23 -4 44 -9 47 -12z m-237 -4 c48
2 77 -6 77 -23 0 -18 -93 -11 -124 9 -30 20 -34 31 -8 20 9 -4 34 -7 55 -6z
m1947 -3 c0 -3 -4 -8 -10 -11 -5 -3 -10 -1 -10 4 0 6 5 11 10 11 6 0 10 -2 10
-4z m-50 -41 c0 -8 -2 -15 -4 -15 -2 0 -6 7 -10 15 -3 8 -1 15 4 15 6 0 10 -7
10 -15z m1570 -24 c0 -10 -24 -21 -48 -21 -13 0 -12 3 4 15 21 16 44 19 44 6z
m627 -87 c-3 -3 -12 -4 -19 -1 -8 3 -5 6 6 6 11 1 17 -2 13 -5z m143 -4 c-19
-13 -30 -13 -30 0 0 6 10 10 23 10 18 0 19 -2 7 -10z m95 -81 c12 -19 -5 -23
-22 -6 -16 16 -16 17 -1 17 9 0 20 -5 23 -11z m-4038 -31 c-3 -8 -6 -5 -6 6
-1 11 2 17 5 13 3 -3 4 -12 1 -19z m4348 -8 c3 -5 1 -10 -4 -10 -6 0 -11 5
-11 10 0 6 2 10 4 10 3 0 8 -4 11 -10z m-300 -20 c-3 -5 -15 -10 -26 -10 -10
0 -19 5 -19 10 0 6 12 10 26 10 14 0 23 -4 19 -10z m-3825 -41 c-7 -11 -14
-18 -17 -15 -3 3 0 12 7 21 18 21 23 19 10 -6z m3410 -31 c-44 -18 -54 -24
-58 -38 -3 -9 3 -11 24 -6 16 4 34 8 39 9 6 1 11 -2 13 -7 3 -10 -62 -36 -89
-36 -10 0 -16 7 -15 16 0 11 -12 21 -33 28 l-34 12 31 15 c18 9 58 16 89 16
49 1 54 0 33 -9z m80 -27 c0 -11 -31 -24 -39 -16 -3 3 1 10 9 15 19 12 30 12
30 1z m43 -51 c-14 -14 -46 -16 -50 -3 -2 6 6 13 19 15 28 5 43 -1 31 -12z
m-79 -27 c4 -10 -6 -13 -39 -13 -24 0 -47 -4 -50 -10 -14 -22 -59 -3 -50 21 7
20 132 22 139 2z m-185 -97 c-27 -23 -61 -28 -68 -11 -5 13 38 35 69 35 l25
-1 -26 -23z m-104 -25 c-14 -12 -113 -25 -100 -13 12 12 40 19 80 21 17 1 25
-3 20 -8z m795 -97 c0 -8 -4 -12 -10 -9 -5 3 -10 13 -10 21 0 8 5 12 10 9 6
-3 10 -13 10 -21z m47 -46 c-3 -8 -6 -5 -6 6 -1 11 2 17 5 13 3 -3 4 -12 1
-19z m-3767 -28 c0 -5 -4 -10 -9 -10 -6 0 -13 5 -16 10 -3 6 1 10 9 10 9 0 16
-4 16 -10z m1057 -102 c-3 -7 -5 -2 -5 12 0 14 2 19 5 13 2 -7 2 -19 0 -25z
m-128 -34 c16 -37 9 -39 -11 -3 -9 16 -14 29 -9 29 4 0 13 -12 20 -26z m2931
16 c0 -5 -2 -10 -4 -10 -3 0 -8 5 -11 10 -3 6 -1 10 4 10 6 0 11 -4 11 -10z
m-3034 -84 c-4 -16 -2 -34 3 -40 12 -16 24 -96 14 -96 -13 0 -50 140 -45 173
5 29 5 29 19 11 9 -11 12 -30 9 -48z m-853 32 c15 -7 25 -17 24 -23 -7 -21
-40 -16 -64 9 -21 23 -22 26 -5 26 10 0 30 -6 45 -12z m1063 -79 c16 -33 15
-34 -21 -17 -16 7 -25 19 -25 34 0 31 26 21 46 -17z m-1071 5 c29 -18 29 -19
7 -22 -32 -5 -133 28 -125 40 9 15 85 3 118 -18z m3944 -21 c2 -2 -3 -3 -11
-3 -9 0 -19 7 -22 16 -6 15 -4 15 11 3 10 -7 20 -15 22 -16z m-19 -52 c0 -10
-30 -24 -37 -17 -3 3 -2 9 2 15 8 13 35 15 35 2z m-3778 -116 c0 -5 -5 -11
-11 -13 -6 -2 -11 4 -11 13 0 9 5 15 11 13 6 -2 11 -8 11 -13z m725 -62 c-3
-10 -5 -2 -5 17 0 19 2 27 5 18 2 -10 2 -26 0 -35z m-747 5 c0 -16 -3 -19 -11
-11 -6 6 -8 16 -5 22 11 17 16 13 16 -11z m200 8 c0 -3 -4 -8 -10 -11 -5 -3
-10 -1 -10 4 0 6 5 11 10 11 6 0 10 -2 10 -4z m-50 -106 c26 -16 4 -20 -36 -6
-38 14 -38 15 -9 15 17 0 37 -3 45 -9z m-22 -132 c-5 -15 -48 -24 -48 -10 0
14 12 22 33 22 10 0 17 -5 15 -12z m-298 -102 c0 -15 -18 -31 -26 -23 -7 7 7
37 17 37 5 0 9 -6 9 -14z m414 -55 c14 -5 16 -10 8 -15 -15 -9 -52 2 -52 15 0
11 17 11 44 0z m-4 -70 c19 -16 32 -33 27 -37 -4 -4 -15 0 -24 8 -10 9 -28 19
-40 22 -24 8 -32 36 -10 36 6 0 28 -14 47 -29z m170 8 c0 -5 -4 -9 -10 -9 -5
0 -10 7 -10 16 0 8 5 12 10 9 6 -3 10 -10 10 -16z m-100 -33 c0 -2 3 -11 6
-20 9 -23 -9 -20 -24 4 -10 17 -10 20 3 20 8 0 15 -2 15 -4z m60 -67 c0 -5 -4
-9 -10 -9 -5 0 -10 7 -10 16 0 8 5 12 10 9 6 -3 10 -10 10 -16z m57 -1 c-3 -8
-6 -5 -6 6 -1 11 2 17 5 13 3 -3 4 -12 1 -19z m-1171 -146 c-13 -12 -16 8 -9
49 l8 44 3 -44 c2 -23 1 -46 -2 -49z m1004 64 c0 -3 -4 -8 -10 -11 -5 -3 -10
-1 -10 4 0 6 5 11 10 11 6 0 10 -2 10 -4z m-26 -22 c19 -7 21 -34 3 -34 -8 0
-22 9 -32 20 -16 17 -16 20 -2 20 8 0 22 -3 31 -6z m57 -34 c25 -14 24 -30 -1
-30 -11 0 -20 2 -20 4 0 2 -3 11 -6 20 -7 19 0 20 27 6z m-1071 -24 c0 -3 -4
-8 -10 -11 -5 -3 -10 -1 -10 4 0 6 5 11 10 11 6 0 10 -2 10 -4z m1058 -35 c2
-6 12 -11 23 -11 10 0 19 -4 19 -10 0 -10 -6 -12 -40 -12 -35 0 -40 2 -40 17
0 8 -4 15 -10 15 -5 0 -10 4 -10 9 0 14 53 6 58 -8z m-968 -8 c0 -10 -4 -24
-8 -31 -6 -8 -9 -2 -9 18 0 16 4 30 9 30 4 0 8 -8 8 -17z m200 -83 c0 -11 -4
-20 -10 -20 -5 0 -10 9 -10 20 0 11 5 20 10 20 6 0 10 -9 10 -20z m1025 -30
c3 -5 1 -10 -4 -10 -6 0 -11 5 -11 10 0 6 2 10 4 10 3 0 8 -4 11 -10z m-91
-31 c-8 -13 -24 -1 -24 18 0 13 3 13 15 3 8 -7 12 -16 9 -21z m-834 -34 c0
-25 -16 -24 -18 1 -1 15 2 22 8 19 6 -3 10 -12 10 -20z m1010 15 c0 -5 -4 -10
-10 -10 -5 0 -10 5 -10 10 0 6 5 10 10 10 6 0 10 -4 10 -10z m-1125 -30 c0
-16 -3 -30 -7 -30 -5 0 -8 14 -8 30 0 17 3 30 8 30 4 0 7 -13 7 -30z m1036 14
c12 -14 11 -16 -5 -13 -11 2 -21 10 -24 17 -5 17 13 15 29 -4z m-871 -21 c0
-10 -4 -24 -9 -31 -7 -11 -9 -11 -14 2 -7 19 1 46 14 46 5 0 9 -8 9 -17z
m-343 -50 c-3 -10 -5 -2 -5 17 0 19 2 27 5 18 2 -10 2 -26 0 -35z m1303 37 c0
-5 -5 -10 -11 -10 -5 0 -7 5 -4 10 3 6 8 10 11 10 2 0 4 -4 4 -10z m140 -110
c0 -12 -3 -12 -16 2 -9 9 -13 21 -9 28 9 14 25 -5 25 -30z m87 -32 c-3 -7 -5
-2 -5 12 0 14 2 19 5 13 2 -7 2 -19 0 -25z m-200 -50 c-3 -7 -5 -2 -5 12 0 14
2 19 5 13 2 -7 2 -19 0 -25z m163 -32 c0 -26 -6 -18 -14 19 -5 22 -4 26 4 15
5 -8 10 -24 10 -34z"/>
<path d="M1798 5190 c-39 -5 -54 -13 -82 -45 -19 -22 -35 -48 -36 -57 0 -10
-7 -18 -15 -18 -8 0 -15 -4 -15 -9 0 -17 -59 -98 -75 -105 -8 -3 -15 -11 -15
-18 0 -23 -45 -108 -57 -108 -7 0 -13 -10 -14 -22 -2 -82 -16 -138 -34 -138
-12 0 -15 -15 -15 -71 l0 -71 39 33 c22 19 40 41 40 49 2 17 72 54 81 41 8
-13 69 -31 85 -25 11 4 15 -1 15 -17 1 -22 2 -23 14 -6 16 21 26 22 26 3 0 -8
6 -16 14 -19 10 -4 12 0 9 14 -3 10 -9 19 -13 19 -14 0 -21 135 -10 185 18 79
88 210 136 254 50 45 55 71 22 105 -29 30 -43 33 -100 26z m-153 -510 c3 -5
-3 -10 -15 -10 -12 0 -18 5 -15 10 3 6 10 10 15 10 5 0 12 -4 15 -10z"/>
<path d="M2963 5104 c-41 -32 -44 -70 -8 -104 14 -13 25 -29 25 -36 0 -6 7
-17 15 -24 36 -30 76 -174 78 -278 l1 -69 20 22 c12 12 46 30 77 39 46 15 59
24 73 53 22 45 20 100 -4 151 -11 22 -20 48 -20 57 0 8 -4 15 -10 15 -5 0 -10
9 -10 19 0 10 -7 22 -16 25 -8 3 -13 10 -9 16 3 5 -8 24 -25 41 -16 18 -30 37
-30 44 0 13 -51 39 -95 49 -23 5 -37 0 -62 -20z"/>
<path d="M3900 2690 c20 -13 40 -13 40 0 0 6 -12 10 -27 10 -22 0 -25 -2 -13
-10z"/>
<path d="M3772 2543 c-25 -10 1 -23 48 -23 56 0 74 15 29 24 -36 7 -58 7 -77
-1z"/>
<path d="M285 2520 c-18 -8 -17 -9 8 -9 15 -1 27 4 27 9 0 12 -8 12 -35 0z"/>
<path d="M0 2511 c0 -9 71 -23 79 -15 9 9 -23 24 -51 24 -16 0 -28 -4 -28 -9z"/>
<path d="M335 2510 c3 -5 11 -10 16 -10 6 0 7 5 4 10 -3 6 -11 10 -16 10 -6 0
-7 -4 -4 -10z"/>
<path d="M600 2500 c0 -5 4 -10 9 -10 6 0 13 5 16 10 3 6 -1 10 -9 10 -9 0
-16 -4 -16 -10z"/>
<path d="M3777 2483 c-28 -7 -9 -23 29 -23 24 0 34 5 34 15 0 15 -25 18 -63 8z"/>
<path d="M0 2460 c0 -5 7 -10 16 -10 8 0 12 5 9 10 -3 6 -10 10 -16 10 -5 0
-9 -4 -9 -10z"/>
<path d="M3680 2459 c0 -5 5 -7 10 -4 6 3 10 8 10 11 0 2 -4 4 -10 4 -5 0 -10
-5 -10 -11z"/>
<path d="M60 2449 c-28 -8 -27 -9 18 -15 17 -2 32 0 32 5 0 14 -22 18 -50 10z"/>
<path d="M600 2440 c0 -5 7 -10 16 -10 8 0 12 5 9 10 -3 6 -10 10 -16 10 -5 0
-9 -4 -9 -10z"/>
<path d="M10 2400 c-12 -8 -9 -10 13 -10 16 0 26 4 22 10 -8 12 -16 12 -35 0z"/>
<path d="M323 2403 c9 -2 23 -2 30 0 6 3 -1 5 -18 5 -16 0 -22 -2 -12 -5z"/>
<path d="M3796 2351 c-7 -11 22 -23 35 -15 5 3 9 9 9 15 0 12 -37 12 -44 0z"/>
<path d="M15 2340 c28 -12 37 -12 30 0 -3 6 -16 10 -28 9 -21 0 -21 -1 -2 -9z"/>
<path d="M3685 2340 c3 -5 12 -7 20 -3 21 7 19 13 -6 13 -11 0 -18 -4 -14 -10z"/>
<path d="M91 2330 c-7 -4 -12 -13 -10 -19 3 -8 10 -8 23 2 21 15 9 31 -13 17z"/>
<path d="M3625 2330 c-3 -5 3 -10 14 -10 12 0 21 5 21 10 0 6 -6 10 -14 10 -8
0 -18 -4 -21 -10z"/>
<path d="M155 2320 c3 -5 14 -10 23 -10 15 0 15 2 2 10 -20 13 -33 13 -25 0z"/>
<path d="M3526 2312 c-2 -4 2 -16 9 -26 11 -14 17 -15 27 -7 7 7 22 18 33 26
19 13 17 14 -22 15 -23 0 -44 -3 -47 -8z"/>
<path d="M3490 2290 c0 -13 5 -20 13 -17 6 2 12 10 12 17 0 7 -6 15 -12 18 -8
2 -13 -5 -13 -18z"/>
<path d="M3826 2292 c-11 -11 7 -22 35 -22 17 0 28 4 25 9 -7 10 -53 20 -60
13z"/>
<path d="M10 2280 c0 -6 10 -10 23 -10 13 0 28 -5 34 -11 13 -13 36 -3 31 13
-5 14 -88 21 -88 8z"/>
<path d="M221 2260 c-9 -5 -4 -9 13 -12 14 -3 26 -2 26 2 0 12 -26 19 -39 10z"/>
<path d="M424 2249 c-3 -6 -1 -16 5 -22 8 -8 11 -5 11 11 0 24 -5 28 -16 11z"/>
<path d="M3500 2245 c0 -13 25 -32 40 -29 56 10 70 16 70 25 0 7 -9 9 -22 4
-32 -9 -40 -9 -65 -1 -13 4 -23 5 -23 1z"/>
<path d="M4310 2239 c0 -5 5 -7 10 -4 6 3 10 8 10 11 0 2 -4 4 -10 4 -5 0 -10
-5 -10 -11z"/>
<path d="M45 2220 c-16 -7 -16 -9 -4 -9 21 -1 32 -28 16 -38 -7 -4 -22 -6 -34
-4 -13 1 -23 -2 -23 -8 0 -6 3 -10 8 -10 25 4 42 -3 42 -18 1 -16 2 -16 15 1
8 11 15 30 15 42 0 12 6 25 13 27 9 4 8 8 -3 16 -17 12 -18 12 -45 1z"/>
<path d="M2080 2210 c0 -5 5 -10 10 -10 6 0 10 5 10 10 0 6 -4 10 -10 10 -5 0
-10 -4 -10 -10z"/>
<path d="M430 2191 c0 -11 4 -21 9 -21 18 0 21 18 6 30 -13 10 -15 9 -15 -9z"/>
<path d="M230 2190 c8 -5 29 -9 45 -9 26 0 27 2 10 9 -11 5 -31 9 -45 9 -20 1
-22 -1 -10 -9z"/>
<path d="M3531 2128 c11 -39 23 -76 26 -82 4 -6 9 -26 12 -45 6 -35 28 -41 23
-6 -1 11 -3 28 -3 37 0 9 -7 22 -15 29 -8 6 -14 22 -14 34 0 26 -25 91 -39
100 -6 3 -1 -27 10 -67z"/>
<path d="M4428 2148 c-26 -9 -37 -32 -20 -41 13 -8 72 23 72 38 0 17 -13 18
-52 3z"/>
<path d="M430 2130 c0 -5 5 -10 10 -10 6 0 10 5 10 10 0 6 -4 10 -10 10 -5 0
-10 -4 -10 -10z"/>
<path d="M248 2123 c6 -2 18 -2 25 0 6 3 1 5 -13 5 -14 0 -19 -2 -12 -5z"/>
<path d="M320 2119 c0 -5 5 -7 10 -4 6 3 10 8 10 11 0 2 -4 4 -10 4 -5 0 -10
-5 -10 -11z"/>
<path d="M0 2102 c0 -5 6 -9 13 -9 6 0 22 -3 35 -7 12 -4 22 -3 22 2 0 5 -10
12 -22 16 -32 8 -48 7 -48 -2z"/>
<path d="M160 2070 c0 -12 8 -12 35 0 18 8 17 9 -7 9 -16 1 -28 -3 -28 -9z"/>
<path d="M4236 2050 c-22 -11 -50 -20 -63 -20 -26 0 -73 -27 -73 -42 0 -6 8
-7 18 -3 9 4 50 15 89 25 40 11 83 24 95 31 22 12 22 12 3 20 -27 10 -25 11
-69 -11z"/>
<path d="M3983 2027 c2 -7 11 -12 20 -11 66 3 77 5 77 12 0 5 -23 9 -51 10
-35 1 -49 -3 -46 -11z"/>
<path d="M105 2020 c3 -5 12 -10 20 -10 8 0 17 5 20 10 4 6 -5 10 -20 10 -15
0 -24 -4 -20 -10z"/>
<path d="M4270 1993 c-45 -5 -90 -23 -90 -35 0 -16 144 14 155 32 6 10 1 10
-65 3z"/>
<path d="M4368 1993 c7 -3 16 -2 19 1 4 3 -2 6 -13 5 -11 0 -14 -3 -6 -6z"/>
<path d="M4025 1981 c-7 -12 31 -25 45 -16 5 3 10 10 10 16 0 12 -47 12 -55 0z"/>
<path d="M3586 1923 c12 -49 24 -76 32 -69 11 12 8 70 -5 84 -21 21 -34 14
-27 -15z"/>
<path d="M4036 1935 c-3 -9 3 -19 14 -25 16 -9 25 -6 43 10 15 14 17 19 5 15
-9 -4 -25 -2 -36 4 -15 8 -21 7 -26 -4z"/>
<path d="M4240 1921 c0 -5 -17 -12 -37 -16 -21 -4 -44 -11 -51 -17 -7 -6 -29
-8 -53 -4 -35 6 -40 4 -37 -11 4 -21 66 -26 86 -7 14 15 113 37 145 32 12 -1
37 4 54 11 18 7 38 11 45 9 7 -3 22 -2 33 3 12 4 -21 8 -82 8 -57 1 -103 -3
-103 -8z"/>
<path d="M350 1904 c0 -8 5 -12 10 -9 6 4 8 11 5 16 -9 14 -15 11 -15 -7z"/>
<path d="M450 1910 c0 -5 5 -10 11 -10 5 0 7 5 4 10 -3 6 -8 10 -11 10 -2 0
-4 -4 -4 -10z"/>
<path d="M3680 1901 c0 -5 7 -14 16 -22 13 -10 17 -10 24 1 5 8 6 18 4 22 -7
11 -44 10 -44 -1z"/>
<path d="M40 1850 c0 -5 7 -10 16 -10 8 0 12 5 9 10 -3 6 -10 10 -16 10 -5 0
-9 -4 -9 -10z"/>
<path d="M3690 1851 c0 -15 30 -21 51 -11 27 15 24 20 -16 20 -19 0 -35 -4
-35 -9z"/>
<path d="M4300 1850 c0 -12 89 -12 145 -1 32 7 22 8 -52 9 -54 1 -93 -3 -93
-8z"/>
<path d="M4240 1840 c0 -5 6 -10 14 -10 8 0 18 5 21 10 3 6 -3 10 -14 10 -12
0 -21 -4 -21 -10z"/>
<path d="M3620 1826 c0 -8 5 -18 10 -21 6 -3 10 1 10 9 0 8 -4 18 -10 21 -5 3
-10 -1 -10 -9z"/>
<path d="M4132 1823 c-26 -5 -40 -29 -25 -44 6 -6 26 0 56 17 26 14 47 28 47
30 0 5 -46 3 -78 -3z"/>
<path d="M4540 1806 c0 -8 5 -18 10 -21 6 -3 10 3 10 14 0 12 -4 21 -10 21 -5
0 -10 -6 -10 -14z"/>
<path d="M3715 1799 c-4 -6 -5 -13 -2 -16 7 -7 27 6 27 18 0 12 -17 12 -25 -2z"/>
<path d="M4483 1802 c-24 -4 -32 -22 -10 -22 15 0 43 18 37 22 -3 2 -15 2 -27
0z"/>
<path d="M4340 1780 c-12 -8 -11 -10 7 -10 12 0 25 5 28 10 8 13 -15 13 -35 0z"/>
<path d="M3235 1760 c3 -5 8 -10 11 -10 2 0 4 5 4 10 0 6 -5 10 -11 10 -5 0
-7 -4 -4 -10z"/>
<path d="M3651 1738 c-1 -38 11 -54 30 -43 7 5 5 11 -5 18 -8 7 -17 23 -19 37
-3 18 -5 15 -6 -12z"/>
<path d="M4136 1753 c-28 -15 -29 -16 -11 -29 10 -8 23 -14 28 -14 5 0 4 -7
-4 -16 -10 -13 -10 -17 2 -25 18 -11 89 -12 89 0 0 4 15 13 33 19 29 11 28 11
-21 6 -43 -4 -54 -2 -59 12 -3 9 -1 25 5 34 9 14 8 19 -4 24 -21 8 -25 7 -58
-11z"/>
<path d="M3730 1725 c0 -8 6 -15 14 -15 8 0 16 7 20 15 4 10 -1 15 -14 15 -11
0 -20 -7 -20 -15z"/>
<path d="M4480 1725 c0 -9 6 -12 15 -9 8 4 12 10 9 15 -8 14 -24 10 -24 -6z"/>
<path d="M330 1720 c0 -5 5 -10 10 -10 6 0 10 5 10 10 0 6 -4 10 -10 10 -5 0
-10 -4 -10 -10z"/>
<path d="M370 1719 c0 -5 5 -7 10 -4 6 3 10 8 10 11 0 2 -4 4 -10 4 -5 0 -10
-5 -10 -11z"/>
<path d="M4424 1718 c-3 -4 6 -8 20 -8 14 0 26 4 26 8 0 4 -9 8 -21 8 -11 0
-23 -4 -25 -8z"/>
<path d="M4335 1700 c-3 -5 1 -10 9 -10 9 0 16 5 16 10 0 6 -4 10 -9 10 -6 0
-13 -4 -16 -10z"/>
<path d="M3671 1671 c-8 -5 -11 -16 -8 -26 4 -9 11 -14 16 -11 5 4 11 0 14 -6
3 -9 8 -10 15 -3 16 15 -18 57 -37 46z"/>
<path d="M325 1660 c-3 -5 -1 -10 4 -10 6 0 11 5 11 10 0 6 -2 10 -4 10 -3 0
-8 -4 -11 -10z"/>
<path d="M385 1660 c-3 -5 -1 -10 4 -10 6 0 11 5 11 10 0 6 -2 10 -4 10 -3 0
-8 -4 -11 -10z"/>
<path d="M4360 1648 c-18 -8 -21 -12 -9 -15 8 -2 31 3 50 11 30 14 31 15 9 15
-14 0 -36 -5 -50 -11z"/>
<path d="M4202 1628 c7 -19 46 -21 64 -4 14 15 12 16 -26 16 -29 0 -40 -4 -38
-12z"/>
<path d="M372 1601 c-10 -6 -8 -10 9 -14 26 -7 34 -3 24 12 -7 13 -15 14 -33
2z"/>
<path d="M3698 1602 c-20 -4 -25 -46 -8 -57 6 -3 10 -14 10 -24 0 -11 9 -21
22 -24 12 -4 19 -9 15 -13 -4 -4 4 -17 17 -29 13 -12 26 -30 27 -40 4 -21 29
-33 29 -15 0 7 -9 24 -19 39 -33 46 -72 125 -67 136 6 18 -7 31 -26 27z"/>
<path d="M4356 1583 c-5 -11 3 -13 37 -11 52 4 56 23 5 24 -23 1 -39 -4 -42
-13z"/>
<path d="M2577 1540 c-23 -22 -37 -40 -31 -40 13 0 94 62 94 72 0 18 -23 6
-63 -32z"/>
<path d="M3831 1550 c-9 -5 -8 -9 5 -14 9 -4 21 -3 26 2 12 12 -15 23 -31 12z"/>
<path d="M4406 1541 c-4 -5 -21 -13 -39 -16 -33 -8 -47 -20 -47 -44 0 -10 6
-8 23 7 15 14 42 24 80 28 35 4 56 11 54 18 -5 14 -63 20 -71 7z"/>
<path d="M2624 1509 c-19 -22 -19 -22 4 -10 12 6 22 16 22 21 0 15 -5 12 -26
-11z"/>
<path d="M4439 1484 c-37 -20 -40 -23 -19 -23 39 0 137 26 120 32 -40 14 -60
12 -101 -9z"/>
<path d="M3860 1480 c0 -5 4 -10 9 -10 6 0 13 5 16 10 3 6 -1 10 -9 10 -9 0
-16 -4 -16 -10z"/>
<path d="M1751 1454 c0 -11 3 -14 6 -6 3 7 2 16 -1 19 -3 4 -6 -2 -5 -13z"/>
<path d="M4325 1454 c-16 -16 -21 -44 -7 -44 8 1 52 36 52 43 0 14 -31 14 -45
1z"/>
<path d="M3890 1420 c0 -5 5 -10 10 -10 6 0 10 5 10 10 0 6 -4 10 -10 10 -5 0
-10 -4 -10 -10z"/>
<path d="M4465 1410 c3 -5 8 -10 11 -10 2 0 4 5 4 10 0 6 -5 10 -11 10 -5 0
-7 -4 -4 -10z"/>
<path d="M315 1400 c3 -5 8 -10 11 -10 2 0 4 5 4 10 0 6 -5 10 -11 10 -5 0 -7
-4 -4 -10z"/>
<path d="M4775 1400 c-3 -5 1 -10 9 -10 9 0 16 5 16 10 0 6 -4 10 -9 10 -6 0
-13 -4 -16 -10z"/>
<path d="M4330 1390 c-12 -8 -11 -10 5 -9 11 1 31 5 45 9 24 8 24 8 -5 9 -16
0 -37 -4 -45 -9z"/>
<path d="M4310 1355 c0 -9 6 -12 15 -9 8 4 15 7 15 9 0 2 -7 5 -15 9 -9 3 -15
0 -15 -9z"/>
<path d="M3820 1349 c0 -6 7 -17 15 -25 8 -9 15 -24 15 -34 0 -10 7 -20 15
-24 8 -3 15 -15 15 -26 0 -25 25 -27 35 -3 4 12 -2 25 -18 39 -13 11 -32 34
-42 52 -19 32 -35 42 -35 21z"/>
<path d="M316 1336 c3 -8 12 -12 20 -9 21 8 17 23 -6 23 -13 0 -18 -5 -14 -14z"/>
<path d="M4363 1322 c-29 -2 -43 -8 -43 -18 0 -8 6 -14 14 -14 8 0 21 -2 28
-5 15 -6 65 31 51 37 -4 2 -27 2 -50 0z"/>
<path d="M4640 1308 c-25 -27 -12 -34 31 -19 17 6 35 8 40 5 17 -10 9 9 -8 22
-25 19 -39 17 -63 -8z"/>
<path d="M4370 1261 c0 -5 -3 -17 -7 -27 -5 -14 -3 -16 13 -9 10 4 29 7 41 7
25 -2 41 16 21 22 -39 12 -68 15 -68 7z"/>
<path d="M4674 1245 c-18 -14 -18 -14 8 -15 14 0 28 -5 30 -12 3 -7 13 -5 31
7 15 9 34 15 42 11 9 -3 15 0 15 9 0 21 -99 21 -126 0z"/>
<path d="M4315 1210 c-3 -5 -1 -10 4 -10 6 0 11 5 11 10 0 6 -2 10 -4 10 -3 0
-8 -4 -11 -10z"/>
<path d="M4618 1208 c9 -9 15 -9 24 0 9 9 7 12 -12 12 -19 0 -21 -3 -12 -12z"/>
<path d="M917 1183 c-3 -16 -3 -30 -1 -33 7 -7 24 23 24 43 0 27 -17 20 -23
-10z"/>
<path d="M3010 1184 c0 -15 -7 -32 -16 -38 -10 -8 -16 -31 -18 -71 -2 -33 -6
-72 -11 -87 -6 -24 -11 -27 -34 -21 -14 3 -27 10 -29 15 -7 16 -30 8 -35 -13
-5 -17 -9 -19 -25 -10 -11 6 -22 7 -26 4 -9 -9 14 -33 31 -33 9 0 13 -6 9 -15
-3 -8 -1 -15 4 -15 11 0 22 -34 26 -75 2 -31 -13 -90 -30 -113 -5 -7 -9 -30
-8 -50 2 -40 -43 -198 -59 -207 -5 -4 -9 -14 -9 -24 0 -10 -9 -26 -20 -36 -11
-10 -20 -31 -20 -47 0 -17 -4 -27 -10 -23 -6 4 -10 -6 -10 -24 0 -16 -4 -33
-10 -36 -5 -3 -10 -19 -10 -35 0 -16 -4 -32 -10 -35 -5 -3 -10 -16 -10 -29 0
-12 -10 -32 -21 -45 -17 -18 -19 -27 -12 -44 9 -20 12 -18 38 32 15 30 33 61
41 68 15 16 85 158 105 216 7 20 16 37 20 37 6 0 12 20 37 125 6 22 15 54 21
70 24 72 40 138 35 146 -3 5 1 18 9 29 14 20 14 20 39 1 13 -11 41 -22 61 -26
20 -4 41 -13 48 -21 6 -8 20 -14 30 -14 10 0 21 -9 24 -21 5 -14 13 -19 26
-16 22 6 23 3 8 -25 -10 -19 -9 -20 12 -16 13 3 33 9 44 13 19 8 19 8 3 -12
-10 -11 -18 -23 -18 -27 0 -5 8 -5 18 -1 9 4 22 8 27 9 6 1 19 7 30 13 19 11
19 12 -6 23 -20 9 -25 17 -21 36 3 19 0 24 -17 24 -15 0 -21 6 -21 21 0 19 -4
21 -30 15 -22 -4 -30 -2 -30 8 0 8 6 17 13 20 6 3 0 3 -15 0 -22 -5 -28 -2
-28 11 0 10 -7 15 -17 14 -28 -4 -62 11 -73 32 -6 10 -18 19 -28 19 -9 0 -23
4 -30 9 -19 12 -23 110 -6 144 14 26 30 177 19 177 -3 0 -5 -12 -5 -26z"/>
<path d="M4675 1190 c4 -6 11 -8 16 -5 14 9 11 15 -7 15 -8 0 -12 -5 -9 -10z"/>
<path d="M4740 1190 c0 -5 11 -10 25 -10 14 0 25 5 25 10 0 6 -11 10 -25 10
-14 0 -25 -4 -25 -10z"/>
<path d="M290 1161 c0 -6 -8 -11 -17 -12 -10 0 -13 -3 -6 -5 18 -8 49 11 34
20 -6 4 -11 2 -11 -3z"/>
<path d="M3710 1160 c0 -5 5 -10 11 -10 5 0 7 5 4 10 -3 6 -8 10 -11 10 -2 0
-4 -4 -4 -10z"/>
<path d="M2210 1140 c-8 -5 -12 -12 -8 -15 9 -9 59 6 52 16 -7 12 -25 11 -44
-1z"/>
<path d="M101 1124 c0 -11 3 -14 6 -6 3 7 2 16 -1 19 -3 4 -6 -2 -5 -13z"/>
<path d="M3752 1115 c0 -16 2 -22 5 -12 2 9 2 23 0 30 -3 6 -5 -1 -5 -18z"/>
<path d="M4739 1126 c-2 -3 -116 -7 -252 -10 -212 -5 -255 -9 -304 -26 -32
-11 -68 -20 -80 -20 -15 0 -24 -7 -29 -24 -6 -24 3 -40 84 -148 23 -31 42 -61
42 -66 0 -5 7 -15 16 -23 23 -19 76 -139 71 -160 -3 -11 -1 -22 4 -25 16 -9
10 -22 -13 -30 -13 -4 -39 -20 -60 -35 -20 -16 -47 -35 -60 -42 -58 -31 -166
-107 -198 -138 -52 -50 -121 -109 -128 -109 -3 0 -26 -17 -51 -38 -25 -20 -59
-44 -74 -52 -16 -8 -44 -28 -62 -45 -72 -66 -123 -111 -141 -122 -15 -9 39
-12 258 -12 l276 -1 7 30 c8 38 22 38 30 0 6 -26 11 -30 41 -30 27 0 34 4 34
20 0 11 5 20 11 20 6 0 13 -9 16 -20 6 -22 33 -28 33 -6 0 7 7 19 15 26 13 10
15 9 15 -8 0 -27 16 -37 23 -13 2 10 14 20 26 24 16 4 22 0 27 -19 7 -26 24
-33 24 -9 0 10 11 15 35 15 30 0 34 2 26 17 -5 10 -14 29 -19 43 -10 25 -11
24 -11 -7 -1 -18 -4 -33 -9 -33 -14 0 -37 46 -42 85 -3 22 -9 39 -15 37 -11
-3 -11 -21 0 -69 7 -29 5 -31 -15 -26 -25 7 -27 11 -33 77 l-5 48 34 -5 33 -6
-3 41 c-3 22 -10 45 -16 52 -9 8 -11 6 -6 -11 8 -26 -2 -33 -31 -22 -19 7 -23
16 -23 52 0 58 27 86 36 38 9 -42 22 -39 26 6 4 51 25 53 33 3 6 -38 25 -47
25 -12 0 9 5 24 10 32 15 24 27 1 34 -63 6 -52 4 -58 -11 -55 -10 2 -22 13
-28 25 -11 21 -11 20 -24 -9 -12 -26 -11 -35 5 -68 21 -43 34 -43 34 -1 0 15
3 31 7 34 12 12 43 -53 43 -90 0 -20 3 -34 6 -30 9 9 6 128 -5 172 -6 22 -11
48 -11 58 0 20 30 23 48 5 9 -9 12 -6 12 13 0 14 6 34 14 45 14 18 15 18 21 2
4 -10 15 -18 25 -18 15 0 17 8 14 60 -2 46 1 60 11 60 9 0 16 -17 20 -47 9
-69 13 -79 27 -65 9 9 9 15 0 24 -14 14 -15 57 -2 78 9 13 11 13 20 0 5 -8 10
-23 10 -33 0 -11 5 -15 11 -11 6 3 9 20 7 36 -3 16 -1 31 4 34 4 3 8 0 8 -5 0
-6 6 -11 14 -11 8 0 17 -7 20 -16 6 -14 9 -13 27 7 l21 24 18 -22 c10 -13 21
-23 24 -23 10 0 7 67 -4 96 -8 19 -8 30 0 38 6 6 10 100 10 257 0 216 -2 248
-16 253 -18 7 -39 8 -45 2z m-473 -192 c-4 -9 -9 -15 -11 -12 -3 3 -3 13 1 22
4 9 9 15 11 12 3 -3 3 -13 -1 -22z m1 -130 c-3 -3 -12 -4 -19 -1 -8 3 -5 6 6
6 11 1 17 -2 13 -5z m481 -216 c-5 -32 -28 -35 -28 -4 0 17 5 26 16 26 10 0
14 -7 12 -22z m-68 -12 c0 -8 -4 -18 -10 -21 -5 -3 -10 3 -10 14 0 12 5 21 10
21 6 0 10 -6 10 -14z m-405 -65 c6 -20 -3 -51 -15 -51 -10 0 -20 26 -20 51 0
24 27 25 35 0z m247 -46 c2 -13 -4 -21 -16 -23 -14 -3 -17 0 -12 13 3 9 6 24
6 33 0 21 17 3 22 -23z m-53 -32 c1 -7 -6 -13 -14 -13 -16 0 -19 17 -8 46 6
16 7 16 14 -2 4 -10 8 -25 8 -31z m-73 0 c-11 -11 -19 6 -11 24 8 17 8 17 12
0 3 -10 2 -21 -1 -24z m-272 -74 c16 -15 1 -19 -47 -13 -42 6 -45 8 -30 20 18
14 60 10 77 -7z m72 -24 c-25 -19 -37 -19 -30 0 4 8 16 15 28 15 21 -1 21 -1
2 -15z m17 -60 c4 -8 2 -17 -3 -20 -6 -4 -10 3 -10 14 0 25 6 27 13 6z m-43
-15 c0 -50 -52 -130 -85 -130 -22 0 -18 24 9 49 13 12 32 40 42 61 21 44 34
51 34 20z m-19 -123 c-10 -9 -11 -8 -5 6 3 10 9 15 12 12 3 -3 0 -11 -7 -18z
m77 -22 c0 -14 -4 -25 -9 -25 -5 0 -9 14 -9 31 0 16 4 28 9 25 5 -3 9 -17 9
-31z m-233 15 c-3 -5 -13 -10 -21 -10 -8 0 -14 5 -14 10 0 6 9 10 21 10 11 0
17 -4 14 -10z m168 -30 c3 -11 1 -20 -4 -20 -5 0 -9 9 -9 20 0 11 2 20 4 20 2
0 6 -9 9 -20z"/>
<path d="M897 1104 c-13 -13 -7 -24 14 -24 11 0 19 5 17 12 -5 14 -22 21 -31
12z"/>
<path d="M2143 1073 c-7 -3 -13 -12 -13 -21 0 -15 2 -15 17 1 18 18 16 27 -4
20z"/>
<path d="M3414 1052 c9 -10 50 -86 92 -168 66 -131 94 -175 94 -148 0 11 -39
113 -53 139 -6 11 -23 43 -38 71 -26 48 -91 124 -105 124 -4 0 0 -8 10 -18z"/>
<path d="M920 1040 c0 -5 5 -10 10 -10 6 0 10 5 10 10 0 6 -4 10 -10 10 -5 0
-10 -4 -10 -10z"/>
<path d="M1007 1043 c-10 -9 -9 -53 1 -53 12 0 32 46 25 54 -8 8 -18 8 -26 -1z"/>
<path d="M3760 1030 c0 -11 5 -29 12 -39 9 -15 9 -28 1 -54 -9 -29 -8 -35 3
-30 8 3 15 10 15 17 6 47 3 66 -9 71 -10 3 -12 13 -8 30 4 14 2 25 -4 25 -5 0
-10 -9 -10 -20z"/>
<path d="M2166 1015 c-24 -36 -19 -42 9 -11 27 29 30 36 16 36 -5 0 -16 -11
-25 -25z"/>
<path d="M3127 1033 c-4 -3 -7 -11 -7 -17 0 -6 5 -5 12 2 6 6 9 14 7 17 -3 3
-9 2 -12 -2z"/>
<path d="M3179 1023 c-13 -16 -12 -17 4 -4 9 7 17 15 17 17 0 8 -8 3 -21 -13z"/>
<path d="M3197 963 c-4 -3 -7 -11 -7 -17 0 -6 5 -5 12 2 6 6 9 14 7 17 -3 3
-9 2 -12 -2z"/>
<path d="M3800 900 c0 -5 5 -10 11 -10 5 0 7 5 4 10 -3 6 -8 10 -11 10 -2 0
-4 -4 -4 -10z"/>
<path d="M3787 874 c-4 -4 -7 -14 -7 -23 0 -11 3 -12 11 -4 6 6 10 16 7 23 -2
6 -7 8 -11 4z"/>
<path d="M3816 813 c-3 -10 -9 -24 -12 -31 -5 -11 -2 -12 15 -3 11 7 21 21 21
31 0 25 -16 26 -24 3z"/>
<path d="M3708 803 c7 -3 16 -2 19 1 4 3 -2 6 -13 5 -11 0 -14 -3 -6 -6z"/>
<path d="M2417 738 c-8 -24 -18 -51 -22 -60 -5 -13 -2 -15 13 -11 24 6 51 88
35 104 -7 7 -15 -3 -26 -33z"/>
<path d="M3840 724 c0 -8 5 -12 10 -9 6 4 8 11 5 16 -9 14 -15 11 -15 -7z"/>
<path d="M2066 691 c-12 -18 1 -27 41 -29 21 -2 61 -9 89 -16 29 -7 57 -10 64
-6 14 9 -21 20 -67 20 -17 0 -34 4 -38 9 -3 5 -19 9 -36 9 -17 -1 -34 5 -39
12 -5 8 -9 9 -14 1z"/>
<path d="M3890 665 c-20 -24 -6 -28 15 -5 10 11 13 20 8 20 -6 0 -16 -7 -23
-15z"/>
<path d="M1040 659 c0 -5 5 -7 10 -4 6 3 10 8 10 11 0 2 -4 4 -10 4 -5 0 -10
-5 -10 -11z"/>
<path d="M2990 659 c0 -5 5 -7 10 -4 6 3 10 8 10 11 0 2 -4 4 -10 4 -5 0 -10
-5 -10 -11z"/>
<path d="M3417 653 c-12 -12 -7 -22 8 -17 8 4 15 10 15 15 0 11 -14 12 -23 2z"/>
<path d="M2358 639 c-19 -10 -24 -29 -9 -29 5 0 19 9 32 20 26 21 9 28 -23 9z"/>
<path d="M3522 628 c2 -6 14 -15 26 -19 20 -8 21 -6 12 11 -11 21 -44 28 -38
8z"/>
<path d="M3370 620 c0 -5 4 -10 9 -10 6 0 13 5 16 10 3 6 -1 10 -9 10 -9 0
-16 -4 -16 -10z"/>
<path d="M3701 604 c0 -11 3 -14 6 -6 3 7 2 16 -1 19 -3 4 -6 -2 -5 -13z"/>
<path d="M1040 575 c0 -15 4 -24 10 -20 6 3 10 12 10 20 0 8 -4 17 -10 20 -6
4 -10 -5 -10 -20z"/>
<path d="M3330 590 c0 -5 5 -10 10 -10 6 0 10 5 10 10 0 6 -4 10 -10 10 -5 0
-10 -4 -10 -10z"/>
<path d="M3920 590 c0 -5 5 -10 10 -10 6 0 10 5 10 10 0 6 -4 10 -10 10 -5 0
-10 -4 -10 -10z"/>
<path d="M1013 524 c-16 -7 -5 -34 13 -34 8 0 14 9 14 20 0 20 -5 23 -27 14z"/>
<path d="M3550 490 c0 -5 7 -10 16 -10 8 0 12 5 9 10 -3 6 -10 10 -16 10 -5 0
-9 -4 -9 -10z"/>
<path d="M3645 460 c-4 -6 3 -10 14 -10 25 0 27 6 6 13 -8 4 -17 2 -20 -3z"/>
<path d="M4785 450 c-3 -5 -1 -10 4 -10 6 0 11 5 11 10 0 6 -2 10 -4 10 -3 0
-8 -4 -11 -10z"/>
<path d="M3705 430 c-7 -12 2 -12 30 0 19 8 19 9 -2 9 -12 1 -25 -3 -28 -9z"/>
<path d="M170 339 c0 -5 5 -7 10 -4 6 3 10 8 10 11 0 2 -4 4 -10 4 -5 0 -10
-5 -10 -11z"/>
<path d="M4480 305 c-1 -11 -3 -33 -4 -50 -2 -16 4 -52 13 -80 l16 -50 5 45
c3 25 9 50 13 57 4 7 1 16 -9 21 -9 5 -19 24 -24 43 -5 21 -9 26 -10 14z"/>
<path d="M1313 260 c44 -24 65 -27 48 -7 -6 8 -8 17 -4 20 3 4 -13 7 -38 7
l-44 0 38 -20z"/>
<path d="M4554 254 c3 -9 6 -21 6 -27 0 -8 3 -8 11 0 13 13 5 43 -12 43 -6 0
-8 -7 -5 -16z"/>
<path d="M4600 261 c0 -6 5 -13 10 -16 6 -3 10 1 10 9 0 9 -4 16 -10 16 -5 0
-10 -4 -10 -9z"/>
<path d="M4680 253 c0 -13 5 -23 10 -23 13 0 13 11 0 30 -8 12 -10 11 -10 -7z"/>
<path d="M1522 243 c2 -10 10 -18 18 -18 8 0 16 8 18 18 2 12 -3 17 -18 17
-15 0 -20 -5 -18 -17z"/>
<path d="M541 234 c0 -11 3 -14 6 -6 3 7 2 16 -1 19 -3 4 -6 -2 -5 -13z"/>
<path d="M145 180 c-8 -13 4 -32 16 -25 12 8 12 35 0 35 -6 0 -13 -4 -16 -10z"/>
<path d="M4371 134 c0 -11 3 -14 6 -6 3 7 2 16 -1 19 -3 4 -6 -2 -5 -13z"/>
<path d="M4637 81 c-3 -12 -1 -24 4 -27 13 -8 24 25 12 37 -7 7 -12 3 -16 -10z"/>
<path d="M4437 64 c-5 -29 2 -64 13 -64 9 0 21 70 14 82 -10 16 -22 8 -27 -18z"/>
<path d="M4500 76 c0 -17 14 -29 23 -20 8 8 -3 34 -14 34 -5 0 -9 -6 -9 -14z"/>
<path d="M4716 74 c-4 -9 -4 -19 -1 -22 2 -3 7 3 11 12 4 9 4 19 1 22 -2 3 -7
-3 -11 -12z"/>
<path d="M2633 35 c-17 -19 -16 -35 2 -35 9 0 15 9 15 25 0 29 -1 29 -17 10z"/>
<path d="M730 15 c0 -8 5 -15 10 -15 6 0 10 7 10 15 0 8 -4 15 -10 15 -5 0
-10 -7 -10 -15z"/>
</g>
</svg>
